<svg width="1440" height="2480" viewBox="0 0 1440 2480" fill="none" xmlns="http://www.w3.org/2000/svg">
  <defs>
    <linearGradient id="bg" x1="0" y1="0" x2="1440" y2="2480" gradientUnits="userSpaceOnUse">
      <stop stop-color="#F8FAFC"/>
      <stop offset="1" stop-color="#EEF2F7"/>
    </linearGradient>
    <linearGradient id="hero" x1="0" y1="0" x2="0" y2="260" gradientUnits="userSpaceOnUse">
      <stop stop-color="#1F9D73"/>
      <stop offset="1" stop-color="#157A59"/>
    </linearGradient>
    <filter id="shadow" x="-20%" y="-20%" width="140%" height="160%" color-interpolation-filters="sRGB">
      <feDropShadow dx="0" dy="10" stdDeviation="18" flood-color="#0F172A" flood-opacity="0.08"/>
    </filter>
    <filter id="soft" x="-20%" y="-20%" width="140%" height="160%" color-interpolation-filters="sRGB">
      <feDropShadow dx="0" dy="6" stdDeviation="12" flood-color="#0F172A" flood-opacity="0.05"/>
    </filter>
    <clipPath id="phoneClip">
      <rect x="84" y="120" width="570" height="1160" rx="44"/>
    </clipPath>
    <clipPath id="phoneClip2">
      <rect x="786" y="120" width="570" height="1160" rx="44"/>
    </clipPath>
  </defs>

  <rect width="1440" height="2480" fill="url(#bg)"/>

  <text x="96" y="64" fill="#0F172A" font-size="34" font-family="Arial, Helvetica, sans-serif" font-weight="700">
    家庭点菜 App · SVG UI 概念稿
  </text>
  <text x="96" y="102" fill="#475569" font-size="18" font-family="Arial, Helvetica, sans-serif">
    风格：干净、现代、偏 iOS / Flutter 易实现；页面：菜单首页 + 今晚订单
  </text>

  <!-- Left phone -->
  <rect x="60" y="96" width="618" height="1208" rx="54" fill="#111827"/>
  <rect x="84" y="120" width="570" height="1160" rx="44" fill="#F8FAFC"/>
  <rect x="289" y="135" width="160" height="24" rx="12" fill="#0F172A"/>

  <g clip-path="url(#phoneClip)">
    <rect x="84" y="120" width="570" height="260" fill="url(#hero)"/>
    <circle cx="596" cy="170" r="56" fill="rgba(255,255,255,0.10)"/>
    <circle cx="626" cy="326" r="96" fill="rgba(255,255,255,0.07)"/>

    <text x="124" y="196" fill="white" font-size="22" font-family="Arial, Helvetica, sans-serif">周二晚餐</text>
    <text x="124" y="246" fill="white" font-size="42" font-family="Arial, Helvetica, sans-serif" font-weight="700">今晚想吃什么？</text>

    <rect x="124" y="286" width="490" height="56" rx="18" fill="rgba(255,255,255,0.18)"/>
    <circle cx="156" cy="314" r="10" stroke="white" stroke-width="2"/>
    <line x1="163" y1="321" x2="172" y2="330" stroke="white" stroke-width="2" stroke-linecap="round"/>
    <text x="188" y="320" fill="rgba(255,255,255,0.92)" font-size="18" font-family="Arial, Helvetica, sans-serif">
      搜索菜名、口味、食材
    </text>

    <!-- category chips -->
    <rect x="124" y="404" width="98" height="40" rx="20" fill="#0F172A"/>
    <text x="156" y="430" fill="white" font-size="17" font-family="Arial, Helvetica, sans-serif">全部</text>

    <rect x="234" y="404" width="112" height="40" rx="20" fill="white"/>
    <text x="268" y="430" fill="#334155" font-size="17" font-family="Arial, Helvetica, sans-serif">快手菜</text>

    <rect x="358" y="404" width="98" height="40" rx="20" fill="white"/>
    <text x="389" y="430" fill="#334155" font-size="17" font-family="Arial, Helvetica, sans-serif">下饭菜</text>

    <rect x="468" y="404" width="98" height="40" rx="20" fill="white"/>
    <text x="499" y="430" fill="#334155" font-size="17" font-family="Arial, Helvetica, sans-serif">清淡</text>

    <!-- cards row 1 -->
    <g filter="url(#shadow)">
      <rect x="124" y="474" width="230" height="290" rx="28" fill="white"/>
      <rect x="142" y="492" width="194" height="138" rx="22" fill="#FDE68A"/>
      <circle cx="312" cy="522" r="16" fill="rgba(255,255,255,0.82)"/>
      <path d="M306 522h12M312 516v12" stroke="#0F172A" stroke-width="2.4" stroke-linecap="round"/>

      <!-- stylized food -->
      <ellipse cx="239" cy="560" rx="58" ry="34" fill="#D97706"/>
      <ellipse cx="223" cy="554" rx="18" ry="12" fill="#F59E0B"/>
      <ellipse cx="252" cy="567" rx="24" ry="14" fill="#FBBF24"/>
      <ellipse cx="267" cy="548" rx="16" ry="11" fill="#FDE68A"/>
      <circle cx="202" cy="534" r="6" fill="#16A34A"/>
      <circle cx="278" cy="578" r="5" fill="#16A34A"/>
      <circle cx="247" cy="538" r="5" fill="#EF4444"/>

      <text x="142" y="664" fill="#0F172A" font-size="28" font-family="Arial, Helvetica, sans-serif" font-weight="700">番茄炒蛋</text>
      <text x="142" y="700" fill="#64748B" font-size="18" font-family="Arial, Helvetica, sans-serif">10 分钟 · 简单 · 酸甜</text>
      <rect x="142" y="722" width="78" height="28" rx="14" fill="#ECFDF5"/>
      <text x="165" y="741" fill="#047857" font-size="15" font-family="Arial, Helvetica, sans-serif">家常</text>
      <rect x="250" y="716" width="86" height="36" rx="18" fill="#0F172A"/>
      <text x="279" y="739" fill="white" font-size="16" font-family="Arial, Helvetica, sans-serif">点菜</text>
    </g>

    <g filter="url(#shadow)">
      <rect x="384" y="474" width="230" height="290" rx="28" fill="white"/>
      <rect x="402" y="492" width="194" height="138" rx="22" fill="#FECACA"/>
      <circle cx="572" cy="522" r="16" fill="rgba(255,255,255,0.82)"/>
      <path d="M566 522h12M572 516v12" stroke="#0F172A" stroke-width="2.4" stroke-linecap="round"/>

      <ellipse cx="499" cy="560" rx="64" ry="32" fill="#7C2D12"/>
      <ellipse cx="483" cy="558" rx="22" ry="10" fill="#B45309"/>
      <ellipse cx="519" cy="568" rx="28" ry="12" fill="#92400E"/>
      <circle cx="460" cy="543" r="5" fill="#16A34A"/>
      <circle cx="544" cy="549" r="5" fill="#16A34A"/>
      <circle cx="500" cy="539" r="4.5" fill="#FCA5A5"/>

      <text x="402" y="664" fill="#0F172A" font-size="28" font-family="Arial, Helvetica, sans-serif" font-weight="700">红烧肉</text>
      <text x="402" y="700" fill="#64748B" font-size="18" font-family="Arial, Helvetica, sans-serif">45 分钟 · 招牌 · 下饭</text>
      <rect x="402" y="722" width="78" height="28" rx="14" fill="#FFF1F2"/>
      <text x="425" y="741" fill="#BE123C" font-size="15" font-family="Arial, Helvetica, sans-serif">硬菜</text>
      <rect x="510" y="716" width="86" height="36" rx="18" fill="#0F172A"/>
      <text x="539" y="739" fill="white" font-size="16" font-family="Arial, Helvetica, sans-serif">点菜</text>
    </g>

    <!-- section title -->
    <text x="124" y="836" fill="#0F172A" font-size="26" font-family="Arial, Helvetica, sans-serif" font-weight="700">推荐组合</text>
    <text x="124" y="866" fill="#64748B" font-size="18" font-family="Arial, Helvetica, sans-serif">一键选好今晚三道菜</text>

    <g filter="url(#soft)">
      <rect x="124" y="894" width="490" height="138" rx="26" fill="white"/>
      <rect x="148" y="918" width="78" height="78" rx="18" fill="#DCFCE7"/>
      <circle cx="187" cy="957" r="24" fill="#22C55E"/>
      <rect x="246" y="922" width="142" height="18" rx="9" fill="#0F172A"/>
      <rect x="246" y="952" width="220" height="12" rx="6" fill="#CBD5E1"/>
      <rect x="246" y="976" width="194" height="12" rx="6" fill="#CBD5E1"/>
      <rect x="474" y="934" width="116" height="42" rx="21" fill="#16A34A"/>
      <text x="507" y="961" fill="white" font-size="18" font-family="Arial, Helvetica, sans-serif">一键加入</text>
    </g>

    <!-- bottom nav -->
    <rect x="108" y="1100" width="522" height="116" rx="34" fill="white" filter="url(#shadow)"/>
    <g>
      <circle cx="182" cy="1150" r="22" fill="#ECFDF5"/>
      <path d="M170 1153l12-11 12 11v14a2 2 0 0 1-2 2h-20a2 2 0 0 1-2-2v-14z" fill="#16A34A"/>
      <text x="164" y="1192" fill="#16A34A" font-size="16" font-family="Arial, Helvetica, sans-serif">菜单</text>

      <circle cx="314" cy="1150" r="22" fill="#F1F5F9"/>
      <rect x="303" y="1140" width="22" height="20" rx="4" fill="#64748B"/>
      <text x="296" y="1192" fill="#64748B" font-size="16" font-family="Arial, Helvetica, sans-serif">订单</text>

      <circle cx="446" cy="1150" r="22" fill="#F1F5F9"/>
      <path d="M438 1143h16v5h-16zM438 1151h16v5h-16zM438 1159h11v5h-11z" fill="#64748B"/>
      <text x="428" y="1192" fill="#64748B" font-size="16" font-family="Arial, Helvetica, sans-serif">采购</text>

      <circle cx="578" cy="1150" r="22" fill="#F1F5F9"/>
      <circle cx="578" cy="1148" r="8" fill="#64748B"/>
      <rect x="568" y="1158" width="20" height="10" rx="5" fill="#64748B"/>
      <text x="560" y="1192" fill="#64748B" font-size="16" font-family="Arial, Helvetica, sans-serif">我的</text>
    </g>
  </g>

  <!-- Right phone -->
  <rect x="762" y="96" width="618" height="1208" rx="54" fill="#111827"/>
  <rect x="786" y="120" width="570" height="1160" rx="44" fill="#F8FAFC"/>
  <rect x="991" y="135" width="160" height="24" rx="12" fill="#0F172A"/>

  <g clip-path="url(#phoneClip2)">
    <rect x="786" y="120" width="570" height="210" fill="#FFFFFF"/>
    <text x="826" y="190" fill="#0F172A" font-size="38" font-family="Arial, Helvetica, sans-serif" font-weight="700">今晚订单</text>
    <text x="826" y="224" fill="#64748B" font-size="18" font-family="Arial, Helvetica, sans-serif">家人点了 4 道菜，预计 55 分钟</text>
    <circle cx="1290" cy="196" r="28" fill="#ECFDF5"/>
    <path d="M1278 196h24M1290 184v24" stroke="#16A34A" stroke-width="3" stroke-linecap="round"/>

    <g filter="url(#shadow)">
      <rect x="826" y="276" width="490" height="88" rx="24" fill="#16A34A"/>
      <text x="858" y="309" fill="rgba(255,255,255,0.85)" font-size="16" font-family="Arial, Helvetica, sans-serif">今日状态</text>
      <text x="858" y="340" fill="white" font-size="26" font-family="Arial, Helvetica, sans-serif" font-weight="700">正在准备食材</text>
      <rect x="1200" y="298" width="84" height="42" rx="21" fill="rgba(255,255,255,0.18)"/>
      <text x="1223" y="325" fill="white" font-size="18" font-family="Arial, Helvetica, sans-serif">开始</text>
    </g>

    <!-- order cards -->
    <g filter="url(#soft)">
      <rect x="826" y="396" width="490" height="132" rx="28" fill="white"/>
      <rect x="850" y="420" width="84" height="84" rx="22" fill="#FDE68A"/>
      <ellipse cx="892" cy="462" rx="26" ry="16" fill="#D97706"/>
      <ellipse cx="882" cy="456" rx="10" ry="7" fill="#F59E0B"/>
      <ellipse cx="903" cy="467" rx="12" ry="8" fill="#FBBF24"/>
      <text x="958" y="444" fill="#0F172A" font-size="28" font-family="Arial, Helvetica, sans-serif" font-weight="700">番茄炒蛋</text>
      <text x="958" y="478" fill="#64748B" font-size="18" font-family="Arial, Helvetica, sans-serif">妈妈点的 · 快手菜</text>
      <rect x="1170" y="434" width="110" height="38" rx="19" fill="#ECFDF5"/>
      <text x="1207" y="459" fill="#047857" font-size="17" font-family="Arial, Helvetica, sans-serif">已确认</text>
      <circle cx="1248" cy="492" r="22" fill="#F1F5F9"/>
      <text x="1241" y="499" fill="#0F172A" font-size="22" font-family="Arial, Helvetica, sans-serif" font-weight="700">1</text>
    </g>

    <g filter="url(#soft)">
      <rect x="826" y="546" width="490" height="132" rx="28" fill="white"/>
      <rect x="850" y="570" width="84" height="84" rx="22" fill="#FECACA"/>
      <ellipse cx="892" cy="612" rx="28" ry="15" fill="#7C2D12"/>
      <ellipse cx="882" cy="608" rx="9" ry="6" fill="#92400E"/>
      <ellipse cx="903" cy="617" rx="11" ry="7" fill="#B45309"/>
      <text x="958" y="594" fill="#0F172A" font-size="28" font-family="Arial, Helvetica, sans-serif" font-weight="700">红烧肉</text>
      <text x="958" y="628" fill="#64748B" font-size="18" font-family="Arial, Helvetica, sans-serif">爸爸点的 · 招牌菜</text>
      <rect x="1170" y="584" width="110" height="38" rx="19" fill="#FFF1F2"/>
      <text x="1200" y="609" fill="#BE123C" font-size="17" font-family="Arial, Helvetica, sans-serif">排队中</text>
      <circle cx="1248" cy="642" r="22" fill="#F1F5F9"/>
      <text x="1241" y="649" fill="#0F172A" font-size="22" font-family="Arial, Helvetica, sans-serif" font-weight="700">1</text>
    </g>

    <g filter="url(#soft)">
      <rect x="826" y="696" width="490" height="132" rx="28" fill="white"/>
      <rect x="850" y="720" width="84" height="84" rx="22" fill="#D1FAE5"/>
      <ellipse cx="892" cy="762" rx="28" ry="15" fill="#22C55E"/>
      <ellipse cx="883" cy="758" rx="10" ry="7" fill="#86EFAC"/>
      <ellipse cx="904" cy="767" rx="11" ry="7" fill="#15803D"/>
      <text x="958" y="744" fill="#0F172A" font-size="28" font-family="Arial, Helvetica, sans-serif" font-weight="700">西兰花虾仁</text>
      <text x="958" y="778" fill="#64748B" font-size="18" font-family="Arial, Helvetica, sans-serif">妹妹点的 · 清淡</text>
      <rect x="1170" y="734" width="110" height="38" rx="19" fill="#EFF6FF"/>
      <text x="1200" y="759" fill="#1D4ED8" font-size="17" font-family="Arial, Helvetica, sans-serif">待处理</text>
      <circle cx="1248" cy="792" r="22" fill="#F1F5F9"/>
      <text x="1241" y="799" fill="#0F172A" font-size="22" font-family="Arial, Helvetica, sans-serif" font-weight="700">1</text>
    </g>

    <text x="826" y="896" fill="#0F172A" font-size="26" font-family="Arial, Helvetica, sans-serif" font-weight="700">采购清单</text>

    <g filter="url(#soft)">
      <rect x="826" y="924" width="490" height="180" rx="28" fill="white"/>
      <circle cx="862" cy="964" r="8" fill="#16A34A"/>
      <text x="884" y="970" fill="#334155" font-size="20" font-family="Arial, Helvetica, sans-serif">番茄 3 个</text>
      <circle cx="862" cy="1010" r="8" fill="#16A34A"/>
      <text x="884" y="1016" fill="#334155" font-size="20" font-family="Arial, Helvetica, sans-serif">鸡蛋 6 个</text>
      <circle cx="862" cy="1056" r="8" fill="#16A34A"/>
      <text x="884" y="1062" fill="#334155" font-size="20" font-family="Arial, Helvetica, sans-serif">五花肉 500g</text>
      <circle cx="1124" cy="964" r="8" fill="#16A34A"/>
      <text x="1146" y="970" fill="#334155" font-size="20" font-family="Arial, Helvetica, sans-serif">西兰花 1 颗</text>
      <circle cx="1124" cy="1010" r="8" fill="#16A34A"/>
      <text x="1146" y="1016" fill="#334155" font-size="20" font-family="Arial, Helvetica, sans-serif">虾仁 200g</text>

      <rect x="1140" y="1040" width="146" height="42" rx="21" fill="#0F172A"/>
      <text x="1179" y="1067" fill="white" font-size="18" font-family="Arial, Helvetica, sans-serif">导出清单</text>
    </g>

    <!-- bottom nav -->
    <rect x="810" y="1100" width="522" height="116" rx="34" fill="white" filter="url(#shadow)"/>
    <g>
      <circle cx="884" cy="1150" r="22" fill="#F1F5F9"/>
      <path d="M872 1153l12-11 12 11v14a2 2 0 0 1-2 2h-20a2 2 0 0 1-2-2v-14z" fill="#64748B"/>
      <text x="866" y="1192" fill="#64748B" font-size="16" font-family="Arial, Helvetica, sans-serif">菜单</text>

      <circle cx="1016" cy="1150" r="22" fill="#ECFDF5"/>
      <rect x="1005" y="1140" width="22" height="20" rx="4" fill="#16A34A"/>
      <text x="998" y="1192" fill="#16A34A" font-size="16" font-family="Arial, Helvetica, sans-serif">订单</text>

      <circle cx="1148" cy="1150" r="22" fill="#F1F5F9"/>
      <path d="M1140 1143h16v5h-16zM1140 1151h16v5h-16zM1140 1159h11v5h-11z" fill="#64748B"/>
      <text x="1130" y="1192" fill="#64748B" font-size="16" font-family="Arial, Helvetica, sans-serif">采购</text>

      <circle cx="1280" cy="1150" r="22" fill="#F1F5F9"/>
      <circle cx="1280" cy="1148" r="8" fill="#64748B"/>
      <rect x="1270" y="1158" width="20" height="10" rx="5" fill="#64748B"/>
      <text x="1262" y="1192" fill="#64748B" font-size="16" font-family="Arial, Helvetica, sans-serif">我的</text>
    </g>
  </g>

  <!-- spec notes -->
  <g filter="url(#soft)">
    <rect x="96" y="1380" width="1248" height="520" rx="36" fill="white"/>
  </g>

  <text x="136" y="1440" fill="#0F172A" font-size="28" font-family="Arial, Helvetica, sans-serif" font-weight="700">
    设计说明
  </text>
  <text x="136" y="1490" fill="#334155" font-size="21" font-family="Arial, Helvetica, sans-serif">
    1. 视觉方向：浅底色 + 深色文字 + 绿色作为品牌强调色，适合“家庭、做饭、健康”主题。
  </text>
  <text x="136" y="1536" fill="#334155" font-size="21" font-family="Arial, Helvetica, sans-serif">
    2. 信息架构：首页强调“浏览和点菜”，订单页强调“执行和采购”，避免页面职责混乱。
  </text>
  <text x="136" y="1582" fill="#334155" font-size="21" font-family="Arial, Helvetica, sans-serif">
    3. 组件策略：统一使用圆角卡片、轻阴影、胶囊按钮，Flutter 中很容易落地。
  </text>
  <text x="136" y="1628" fill="#334155" font-size="21" font-family="Arial, Helvetica, sans-serif">
    4. 交互重点：点菜按钮、推荐组合、一键导出清单，都是提高使用频率的关键入口。
  </text>

  <rect x="136" y="1690" width="252" height="96" rx="24" fill="#F8FAFC" stroke="#E2E8F0"/>
  <text x="160" y="1730" fill="#64748B" font-size="18" font-family="Arial, Helvetica, sans-serif">主色</text>
  <text x="160" y="1764" fill="#0F172A" font-size="26" font-family="Arial, Helvetica, sans-serif" font-weight="700">#16A34A</text>
  <rect x="300" y="1712" width="64" height="40" rx="12" fill="#16A34A"/>

  <rect x="416" y="1690" width="252" height="96" rx="24" fill="#F8FAFC" stroke="#E2E8F0"/>
  <text x="440" y="1730" fill="#64748B" font-size="18" font-family="Arial, Helvetica, sans-serif">背景</text>
  <text x="440" y="1764" fill="#0F172A" font-size="26" font-family="Arial, Helvetica, sans-serif" font-weight="700">#F8FAFC</text>
  <rect x="580" y="1712" width="64" height="40" rx="12" fill="#F8FAFC" stroke="#CBD5E1"/>

  <rect x="696" y="1690" width="252" height="96" rx="24" fill="#F8FAFC" stroke="#E2E8F0"/>
  <text x="720" y="1730" fill="#64748B" font-size="18" font-family="Arial, Helvetica, sans-serif">正文</text>
  <text x="720" y="1764" fill="#0F172A" font-size="26" font-family="Arial, Helvetica, sans-serif" font-weight="700">#0F172A</text>
  <rect x="860" y="1712" width="64" height="40" rx="12" fill="#0F172A"/>

  <rect x="976" y="1690" width="328" height="96" rx="24" fill="#F8FAFC" stroke="#E2E8F0"/>
  <text x="1000" y="1730" fill="#64748B" font-size="18" font-family="Arial, Helvetica, sans-serif">辅助灰</text>
  <text x="1000" y="1764" fill="#0F172A" font-size="26" font-family="Arial, Helvetica, sans-serif" font-weight="700">#64748B / #CBD5E1</text>

  <text x="136" y="1858" fill="#0F172A" font-size="26" font-family="Arial, Helvetica, sans-serif" font-weight="700">
    Flutter 落地建议
  </text>
  <text x="136" y="1902" fill="#334155" font-size="21" font-family="Arial, Helvetica, sans-serif">
    用 Material 3，自定义 ColorScheme；卡片圆角 24~28；主按钮高度 44~48；页面横向边距 20~24。
  </text>

  <text x="136" y="1970" fill="#334155" font-size="21" font-family="Arial, Helvetica, sans-serif">
    菜品图片统一 4:3；首页用 GridView，两列卡片；订单页用 ListView；底部导航固定 4 项即可。
  </text>

  <text x="136" y="2038" fill="#334155" font-size="21" font-family="Arial, Helvetica, sans-serif">
    如果下一步需要，我可以继续给你补：启动页、登录页、菜品管理页、添加菜品弹窗、完整设计 token。
  </text>
</svg>
