<svg width="375" height="812" viewBox="0 0 375 812" fill="none" xmlns="http://www.w3.org/2000/svg">
  <defs>
    <filter id="cardShadow" x="-10" y="-10" width="400" height="200" filterUnits="userSpaceOnUse">
      <feDropShadow dx="0" dy="4" stdDeviation="8" flood-color="#2D6A4F" flood-opacity="0.1"/>
    </filter>
    <linearGradient id="headerGrad" x1="0" y1="0" x2="375" y2="100" gradientUnits="userSpaceOnUse">
      <stop offset="0%" stop-color="#2D6A4F"/>
      <stop offset="100%" stop-color="#40916C"/>
    </linearGradient>
  </defs>
  
  <!-- Background -->
  <rect width="375" height="812" fill="#F4F9F6"/>
  <ellipse cx="350" cy="200" rx="100" ry="80" fill="#D8F3DC" opacity="0.4"/>
  <ellipse cx="30" cy="700" rx="80" ry="60" fill="#B7E4C7" opacity="0.3"/>
  
  <!-- Status Bar -->
  <rect width="375" height="44" fill="#FFFFFF"/>
  <text x="187" y="28" font-family="SF Pro Display, system-ui" font-size="14" font-weight="600" fill="#1B4332" text-anchor="middle">9:41</text>
  <rect x="336" y="17" width="24" height="11" rx="3" stroke="#1B4332" stroke-width="1.2"/>
  <rect x="338" y="19" width="18" height="7" rx="2" fill="#2D6A4F"/>
  
  <!-- App Bar -->
  <rect y="44" width="375" height="64" fill="url(#headerGrad)"/>
  <path d="M0 108 Q93 98 187 108 T375 108 L375 108 L0 108" fill="#F4F9F6"/>
  
  <!-- Back button -->
  <g transform="translate(24, 76)">
    <path d="M10 0 L0 10 L10 20" stroke="#FFFFFF" stroke-width="2.5" stroke-linecap="round" stroke-linejoin="round" fill="none"/>
  </g>
  <text x="56" y="86" font-family="SF Pro Display, system-ui" font-size="22" font-weight="700" fill="#FFFFFF">历史订单</text>
  
  <!-- Stats Summary -->
  <g filter="url(#cardShadow)">
    <rect x="16" y="124" width="343" height="72" rx="20" fill="#FFFFFF"/>
  </g>
  <text x="70" y="154" font-family="SF Pro Display, system-ui" font-size="26" font-weight="700" fill="#2D6A4F" text-anchor="middle">12</text>
  <text x="70" y="174" font-family="SF Pro Display, system-ui" font-size="12" fill="#6C757D" text-anchor="middle">总订单</text>
  <line x1="140" y1="136" x2="140" y2="184" stroke="#E9F5EC" stroke-width="1"/>
  <text x="187" y="154" font-family="SF Pro Display, system-ui" font-size="26" font-weight="700" fill="#52B788" text-anchor="middle">48</text>
  <text x="187" y="174" font-family="SF Pro Display, system-ui" font-size="12" fill="#6C757D" text-anchor="middle">总菜品</text>
  <line x1="234" y1="136" x2="234" y2="184" stroke="#E9F5EC" stroke-width="1"/>
  <text x="305" y="154" font-family="SF Pro Display, system-ui" font-size="26" font-weight="700" fill="#40916C" text-anchor="middle">6</text>
  <text x="305" y="174" font-family="SF Pro Display, system-ui" font-size="12" fill="#6C757D" text-anchor="middle">参与人</text>
  
  <!-- Section Title -->
  <text x="24" y="224" font-family="SF Pro Display, system-ui" font-size="13" font-weight="600" fill="#6C757D">本月</text>
  
  <!-- Order Card 1 -->
  <g filter="url(#cardShadow)">
    <rect x="16" y="236" width="343" height="88" rx="16" fill="#FFFFFF"/>
  </g>
  <!-- Dish stack - top, larger -->
  <circle cx="40" cy="264" r="18" fill="#FFF3E6"/>
  <text x="40" y="272" font-family="SF Pro Display, system-ui" font-size="18" text-anchor="middle">🍖</text>
  <circle cx="68" cy="264" r="18" fill="#FEF3E2"/>
  <text x="68" y="272" font-family="SF Pro Display, system-ui" font-size="18" text-anchor="middle">🥩</text>
  <circle cx="96" cy="264" r="18" fill="#E8F5E9"/>
  <text x="96" y="272" font-family="SF Pro Display, system-ui" font-size="18" text-anchor="middle">🥒</text>
  <circle cx="124" cy="264" r="18" fill="#FFEBEE"/>
  <text x="124" y="272" font-family="SF Pro Display, system-ui" font-size="18" text-anchor="middle">🍅</text>
  <circle cx="152" cy="264" r="18" fill="#FFF8E1"/>
  <text x="152" y="272" font-family="SF Pro Display, system-ui" font-size="18" text-anchor="middle">🍜</text>
  <circle cx="180" cy="264" r="18" fill="#95D5B2"/>
  <text x="180" y="272" font-family="SF Pro Display, system-ui" font-size="12" font-weight="600" fill="#FFFFFF" text-anchor="middle">+1</text>
  <!-- Date + stats - bottom -->
  <rect x="28" y="292" width="44" height="22" rx="11" fill="#E9F5EC"/>
  <text x="50" y="307" font-family="SF Pro Display, system-ui" font-size="11" font-weight="600" fill="#2D6A4F" text-anchor="middle">3/15</text>
  <text x="84" y="307" font-family="SF Pro Display, system-ui" font-size="12" fill="#6C757D">6 道菜 · 4 人</text>
  <path d="M335 272 L341 278 L335 284" stroke="#95D5B2" stroke-width="2" stroke-linecap="round" stroke-linejoin="round" fill="none"/>
  
  <!-- Order Card 2 -->
  <g filter="url(#cardShadow)">
    <rect x="16" y="336" width="343" height="88" rx="16" fill="#FFFFFF"/>
  </g>
  <circle cx="40" cy="364" r="18" fill="#FFEBEE"/>
  <text x="40" y="372" font-family="SF Pro Display, system-ui" font-size="18" text-anchor="middle">🍅</text>
  <circle cx="68" cy="364" r="18" fill="#FFF8E1"/>
  <text x="68" y="372" font-family="SF Pro Display, system-ui" font-size="18" text-anchor="middle">🍜</text>
  <circle cx="96" cy="364" r="18" fill="#E3F2FD"/>
  <text x="96" y="372" font-family="SF Pro Display, system-ui" font-size="18" text-anchor="middle">🐟</text>
  <circle cx="124" cy="364" r="18" fill="#FFF3E6"/>
  <text x="124" y="372" font-family="SF Pro Display, system-ui" font-size="18" text-anchor="middle">🍖</text>
  <circle cx="152" cy="364" r="18" fill="#E8F5E9"/>
  <text x="152" y="372" font-family="SF Pro Display, system-ui" font-size="18" text-anchor="middle">🥗</text>
  <circle cx="180" cy="364" r="18" fill="#95D5B2"/>
  <text x="180" y="372" font-family="SF Pro Display, system-ui" font-size="12" font-weight="600" fill="#FFFFFF" text-anchor="middle">+3</text>
  <rect x="28" y="392" width="44" height="22" rx="11" fill="#E9F5EC"/>
  <text x="50" y="407" font-family="SF Pro Display, system-ui" font-size="11" font-weight="600" fill="#2D6A4F" text-anchor="middle">3/08</text>
  <text x="84" y="407" font-family="SF Pro Display, system-ui" font-size="12" fill="#6C757D">8 道菜 · 6 人</text>
  <path d="M335 378 L341 384 L335 390" stroke="#95D5B2" stroke-width="2" stroke-linecap="round" stroke-linejoin="round" fill="none"/>
  
  <!-- Order Card 3 -->
  <g filter="url(#cardShadow)">
    <rect x="16" y="436" width="343" height="88" rx="16" fill="#FFFFFF"/>
  </g>
  <circle cx="40" cy="464" r="18" fill="#E8F5E9"/>
  <text x="40" y="472" font-family="SF Pro Display, system-ui" font-size="18" text-anchor="middle">🥗</text>
  <circle cx="68" cy="464" r="18" fill="#FEF3E2"/>
  <text x="68" y="472" font-family="SF Pro Display, system-ui" font-size="18" text-anchor="middle">🥩</text>
  <circle cx="96" cy="464" r="18" fill="#FFF8E1"/>
  <text x="96" y="472" font-family="SF Pro Display, system-ui" font-size="18" text-anchor="middle">🍜</text>
  <circle cx="124" cy="464" r="18" fill="#FFEBEE"/>
  <text x="124" y="472" font-family="SF Pro Display, system-ui" font-size="18" text-anchor="middle">🍅</text>
  <circle cx="152" cy="464" r="18" fill="#95D5B2"/>
  <text x="152" y="472" font-family="SF Pro Display, system-ui" font-size="12" font-weight="600" fill="#FFFFFF" text-anchor="middle">+1</text>
  <rect x="28" y="492" width="44" height="22" rx="11" fill="#E9F5EC"/>
  <text x="50" y="507" font-family="SF Pro Display, system-ui" font-size="11" font-weight="600" fill="#2D6A4F" text-anchor="middle">3/01</text>
  <text x="84" y="507" font-family="SF Pro Display, system-ui" font-size="12" fill="#6C757D">5 道菜 · 3 人</text>
  <path d="M335 478 L341 484 L335 490" stroke="#95D5B2" stroke-width="2" stroke-linecap="round" stroke-linejoin="round" fill="none"/>
  
  <!-- Section Title - Last Month -->
  <text x="24" y="556" font-family="SF Pro Display, system-ui" font-size="13" font-weight="600" fill="#6C757D">上月</text>
  
  <!-- Order Card 4 -->
  <g filter="url(#cardShadow)">
    <rect x="16" y="568" width="343" height="88" rx="16" fill="#FFFFFF"/>
  </g>
  <circle cx="40" cy="596" r="18" fill="#FCE4EC"/>
  <text x="40" y="604" font-family="SF Pro Display, system-ui" font-size="18" text-anchor="middle">🎂</text>
  <circle cx="68" cy="596" r="18" fill="#FFF3E0"/>
  <text x="68" y="604" font-family="SF Pro Display, system-ui" font-size="18" text-anchor="middle">🍗</text>
  <circle cx="96" cy="596" r="18" fill="#E8F5E9"/>
  <text x="96" y="604" font-family="SF Pro Display, system-ui" font-size="18" text-anchor="middle">🥗</text>
  <circle cx="124" cy="596" r="18" fill="#FFF3E6"/>
  <text x="124" y="604" font-family="SF Pro Display, system-ui" font-size="18" text-anchor="middle">🍖</text>
  <circle cx="152" cy="596" r="18" fill="#E3F2FD"/>
  <text x="152" y="604" font-family="SF Pro Display, system-ui" font-size="18" text-anchor="middle">🐟</text>
  <circle cx="180" cy="596" r="18" fill="#95D5B2"/>
  <text x="180" y="604" font-family="SF Pro Display, system-ui" font-size="12" font-weight="600" fill="#FFFFFF" text-anchor="middle">+5</text>
  <rect x="28" y="624" width="44" height="22" rx="11" fill="#F5F5F5"/>
  <text x="50" y="639" font-family="SF Pro Display, system-ui" font-size="11" font-weight="600" fill="#6C757D" text-anchor="middle">2/28</text>
  <text x="84" y="639" font-family="SF Pro Display, system-ui" font-size="12" fill="#6C757D">10 道菜 · 8 人</text>
  <path d="M335 610 L341 616 L335 622" stroke="#95D5B2" stroke-width="2" stroke-linecap="round" stroke-linejoin="round" fill="none"/>
  
  <!-- Order Card 5 -->
  <g filter="url(#cardShadow)">
    <rect x="16" y="668" width="343" height="88" rx="16" fill="#FFFFFF"/>
  </g>
  <circle cx="40" cy="696" r="18" fill="#FFF8E1"/>
  <text x="40" y="704" font-family="SF Pro Display, system-ui" font-size="18" text-anchor="middle">🍜</text>
  <circle cx="68" cy="696" r="18" fill="#E3F2FD"/>
  <text x="68" y="704" font-family="SF Pro Display, system-ui" font-size="18" text-anchor="middle">🐟</text>
  <circle cx="96" cy="696" r="18" fill="#FFF3E6"/>
  <text x="96" y="704" font-family="SF Pro Display, system-ui" font-size="18" text-anchor="middle">🍖</text>
  <circle cx="124" cy="696" r="18" fill="#FFEBEE"/>
  <text x="124" y="704" font-family="SF Pro Display, system-ui" font-size="18" text-anchor="middle">🍅</text>
  <circle cx="152" cy="696" r="18" fill="#95D5B2"/>
  <text x="152" y="704" font-family="SF Pro Display, system-ui" font-size="12" font-weight="600" fill="#FFFFFF" text-anchor="middle">+3</text>
  <rect x="28" y="724" width="44" height="22" rx="11" fill="#F5F5F5"/>
  <text x="50" y="739" font-family="SF Pro Display, system-ui" font-size="11" font-weight="600" fill="#6C757D" text-anchor="middle">2/21</text>
  <text x="84" y="739" font-family="SF Pro Display, system-ui" font-size="12" fill="#6C757D">7 道菜 · 5 人</text>
  <path d="M335 710 L341 716 L335 722" stroke="#95D5B2" stroke-width="2" stroke-linecap="round" stroke-linejoin="round" fill="none"/>
  
  <!-- Home Indicator -->
  <rect x="121" y="800" width="134" height="5" rx="2.5" fill="#1B4332" opacity="0.2"/>
</svg>
