<svg width="375" height="812" viewBox="0 0 375 812" fill="none" xmlns="http://www.w3.org/2000/svg">
  <defs>
    <filter id="sheetShadow" x="-20" y="-20" width="420" height="700" filterUnits="userSpaceOnUse">
      <feDropShadow dx="0" dy="-8" stdDeviation="16" flood-color="#1B4332" flood-opacity="0.15"/>
    </filter>
  </defs>
  
  <!-- Dimmed background -->
  <rect width="375" height="812" fill="#1B4332" opacity="0.4"/>
  
  <!-- Bottom Sheet - taller -->
  <g filter="url(#sheetShadow)">
    <rect y="160" width="375" height="652" rx="28" fill="#FFFFFF"/>
  </g>
  
  <!-- Handle bar -->
  <rect x="162" y="172" width="50" height="5" rx="2.5" fill="#D8F3DC"/>
  
  <!-- Sheet Header - compact -->
  <text x="20" y="208" font-family="SF Pro Display, system-ui" font-size="20" font-weight="700" fill="#1B4332">采购清单</text>
  
  <!-- Summary badges - inline -->
  <rect x="124" y="190" width="64" height="24" rx="12" fill="#E9F5EC"/>
  <text x="156" y="206" font-family="SF Pro Display, system-ui" font-size="12" font-weight="500" fill="#40916C" text-anchor="middle">共 12 种</text>
  
  <rect x="194" y="190" width="88" height="24" rx="12" fill="#FEF3E2"/>
  <text x="238" y="206" font-family="SF Pro Display, system-ui" font-size="12" font-weight="500" fill="#E76F51" text-anchor="middle">🆕 新增 4 种</text>
  
  <!-- Close button -->
  <g transform="translate(343, 200)">
    <circle r="14" fill="#E9F5EC"/>
    <path d="M-4 -4 L4 4 M4 -4 L-4 4" stroke="#40916C" stroke-width="2" stroke-linecap="round"/>
  </g>
  
  <!-- Section: 新增食材 -->
  <rect x="12" y="228" width="351" height="26" rx="13" fill="#D8F3DC"/>
  <text x="24" y="246" font-family="SF Pro Display, system-ui" font-size="13" font-weight="600" fill="#2D6A4F">🆕 本轮新增</text>
  
  <!-- New Items - Compact 2-column grid -->
  <!-- Row 1 -->
  <rect x="12" y="260" width="170" height="52" rx="12" fill="#F8FAF9"/>
  <rect x="12" y="260" width="3" height="52" rx="1.5" fill="#52B788"/>
  <circle cx="36" cy="286" r="16" fill="#FFEBEE"/>
  <text x="36" y="292" font-family="SF Pro Display, system-ui" font-size="16" text-anchor="middle">🍅</text>
  <text x="60" y="280" font-family="SF Pro Display, system-ui" font-size="14" font-weight="600" fill="#1B4332">番茄</text>
  <text x="60" y="296" font-family="SF Pro Display, system-ui" font-size="11" fill="#6C757D">番茄蛋汤</text>
  <rect x="130" y="272" width="44" height="24" rx="12" fill="#E9F5EC"/>
  <text x="152" y="289" font-family="SF Pro Display, system-ui" font-size="12" font-weight="600" fill="#2D6A4F" text-anchor="middle">3个</text>
  
  <rect x="193" y="260" width="170" height="52" rx="12" fill="#F8FAF9"/>
  <rect x="193" y="260" width="3" height="52" rx="1.5" fill="#52B788"/>
  <circle cx="217" cy="286" r="16" fill="#FFF8E1"/>
  <text x="217" y="292" font-family="SF Pro Display, system-ui" font-size="16" text-anchor="middle">🥚</text>
  <text x="241" y="280" font-family="SF Pro Display, system-ui" font-size="14" font-weight="600" fill="#1B4332">鸡蛋</text>
  <text x="241" y="296" font-family="SF Pro Display, system-ui" font-size="11" fill="#6C757D">番茄蛋汤</text>
  <rect x="311" y="272" width="44" height="24" rx="12" fill="#E9F5EC"/>
  <text x="333" y="289" font-family="SF Pro Display, system-ui" font-size="12" font-weight="600" fill="#2D6A4F" text-anchor="middle">4个</text>
  
  <!-- Row 2 -->
  <rect x="12" y="318" width="170" height="52" rx="12" fill="#F8FAF9"/>
  <rect x="12" y="318" width="3" height="52" rx="1.5" fill="#52B788"/>
  <circle cx="36" cy="344" r="16" fill="#E8F5E9"/>
  <text x="36" y="350" font-family="SF Pro Display, system-ui" font-size="16" text-anchor="middle">🧅</text>
  <text x="60" y="338" font-family="SF Pro Display, system-ui" font-size="14" font-weight="600" fill="#1B4332">洋葱</text>
  <text x="60" y="354" font-family="SF Pro Display, system-ui" font-size="11" fill="#6C757D">糖醋里脊</text>
  <rect x="130" y="330" width="44" height="24" rx="12" fill="#E9F5EC"/>
  <text x="152" y="347" font-family="SF Pro Display, system-ui" font-size="12" font-weight="600" fill="#2D6A4F" text-anchor="middle">1个</text>
  
  <rect x="193" y="318" width="170" height="52" rx="12" fill="#F8FAF9"/>
  <rect x="193" y="318" width="3" height="52" rx="1.5" fill="#52B788"/>
  <circle cx="217" cy="344" r="16" fill="#FFF3E0"/>
  <text x="217" y="350" font-family="SF Pro Display, system-ui" font-size="16" text-anchor="middle">🫚</text>
  <text x="241" y="338" font-family="SF Pro Display, system-ui" font-size="14" font-weight="600" fill="#1B4332">生姜</text>
  <text x="241" y="354" font-family="SF Pro Display, system-ui" font-size="11" fill="#6C757D">红烧肉</text>
  <rect x="311" y="330" width="44" height="24" rx="12" fill="#E9F5EC"/>
  <text x="333" y="347" font-family="SF Pro Display, system-ui" font-size="12" font-weight="600" fill="#2D6A4F" text-anchor="middle">1块</text>
  
  <!-- Section: 已有食材 -->
  <text x="20" y="400" font-family="SF Pro Display, system-ui" font-size="13" font-weight="600" fill="#6C757D">已有食材</text>
  
  <!-- Existing Items - Row 1 -->
  <rect x="12" y="412" width="170" height="52" rx="12" fill="#F8FAF9"/>
  <circle cx="36" cy="438" r="16" fill="#FFF3E6"/>
  <text x="36" y="444" font-family="SF Pro Display, system-ui" font-size="16" text-anchor="middle">🥩</text>
  <text x="60" y="432" font-family="SF Pro Display, system-ui" font-size="14" font-weight="600" fill="#1B4332">五花肉</text>
  <text x="60" y="448" font-family="SF Pro Display, system-ui" font-size="11" fill="#6C757D">红烧肉</text>
  <rect x="130" y="424" width="44" height="24" rx="12" fill="#F5F5F5"/>
  <text x="152" y="441" font-family="SF Pro Display, system-ui" font-size="12" font-weight="500" fill="#6C757D" text-anchor="middle">500g</text>
  
  <rect x="193" y="412" width="170" height="52" rx="12" fill="#F8FAF9"/>
  <circle cx="217" cy="438" r="16" fill="#E8F5E9"/>
  <text x="217" y="444" font-family="SF Pro Display, system-ui" font-size="16" text-anchor="middle">🥒</text>
  <text x="241" y="432" font-family="SF Pro Display, system-ui" font-size="14" font-weight="600" fill="#1B4332">黄瓜</text>
  <text x="241" y="448" font-family="SF Pro Display, system-ui" font-size="11" fill="#6C757D">凉拌黄瓜</text>
  <rect x="311" y="424" width="44" height="24" rx="12" fill="#F5F5F5"/>
  <text x="333" y="441" font-family="SF Pro Display, system-ui" font-size="12" font-weight="500" fill="#6C757D" text-anchor="middle">4根</text>
  
  <!-- Existing Items - Row 2 -->
  <rect x="12" y="470" width="170" height="52" rx="12" fill="#F8FAF9"/>
  <circle cx="36" cy="496" r="16" fill="#FFEBEE"/>
  <text x="36" y="502" font-family="SF Pro Display, system-ui" font-size="16" text-anchor="middle">🧄</text>
  <text x="60" y="490" font-family="SF Pro Display, system-ui" font-size="14" font-weight="600" fill="#1B4332">大蒜</text>
  <text x="60" y="506" font-family="SF Pro Display, system-ui" font-size="11" fill="#6C757D">凉拌黄瓜</text>
  <rect x="130" y="482" width="44" height="24" rx="12" fill="#F5F5F5"/>
  <text x="152" y="499" font-family="SF Pro Display, system-ui" font-size="12" font-weight="500" fill="#6C757D" text-anchor="middle">6瓣</text>
  
  <rect x="193" y="470" width="170" height="52" rx="12" fill="#F8FAF9"/>
  <circle cx="217" cy="496" r="16" fill="#FEF3E2"/>
  <text x="217" y="502" font-family="SF Pro Display, system-ui" font-size="16" text-anchor="middle">🍖</text>
  <text x="241" y="490" font-family="SF Pro Display, system-ui" font-size="14" font-weight="600" fill="#1B4332">里脊肉</text>
  <text x="241" y="506" font-family="SF Pro Display, system-ui" font-size="11" fill="#6C757D">糖醋里脊</text>
  <rect x="311" y="482" width="44" height="24" rx="12" fill="#F5F5F5"/>
  <text x="333" y="499" font-family="SF Pro Display, system-ui" font-size="12" font-weight="500" fill="#6C757D" text-anchor="middle">400g</text>
  
  <!-- Existing Items - Row 3 -->
  <rect x="12" y="528" width="170" height="52" rx="12" fill="#F8FAF9"/>
  <circle cx="36" cy="554" r="16" fill="#FFF8E1"/>
  <text x="36" y="560" font-family="SF Pro Display, system-ui" font-size="16" text-anchor="middle">🍚</text>
  <text x="60" y="548" font-family="SF Pro Display, system-ui" font-size="14" font-weight="600" fill="#1B4332">白糖</text>
  <text x="60" y="564" font-family="SF Pro Display, system-ui" font-size="11" fill="#6C757D">糖醋里脊</text>
  <rect x="130" y="540" width="44" height="24" rx="12" fill="#F5F5F5"/>
  <text x="152" y="557" font-family="SF Pro Display, system-ui" font-size="12" font-weight="500" fill="#6C757D" text-anchor="middle">50g</text>
  
  <rect x="193" y="528" width="170" height="52" rx="12" fill="#F8FAF9"/>
  <circle cx="217" cy="554" r="16" fill="#FFEBEE"/>
  <text x="217" y="560" font-family="SF Pro Display, system-ui" font-size="16" text-anchor="middle">🫙</text>
  <text x="241" y="548" font-family="SF Pro Display, system-ui" font-size="14" font-weight="600" fill="#1B4332">香醋</text>
  <text x="241" y="564" font-family="SF Pro Display, system-ui" font-size="11" fill="#6C757D">糖醋里脊</text>
  <rect x="311" y="540" width="44" height="24" rx="12" fill="#F5F5F5"/>
  <text x="333" y="557" font-family="SF Pro Display, system-ui" font-size="12" font-weight="500" fill="#6C757D" text-anchor="middle">30ml</text>
  
  <!-- Existing Items - Row 4 -->
  <rect x="12" y="586" width="170" height="52" rx="12" fill="#F8FAF9"/>
  <circle cx="36" cy="612" r="16" fill="#E3F2FD"/>
  <text x="36" y="618" font-family="SF Pro Display, system-ui" font-size="16" text-anchor="middle">🧂</text>
  <text x="60" y="606" font-family="SF Pro Display, system-ui" font-size="14" font-weight="600" fill="#1B4332">盐</text>
  <text x="60" y="622" font-family="SF Pro Display, system-ui" font-size="11" fill="#6C757D">多道菜</text>
  <rect x="130" y="598" width="44" height="24" rx="12" fill="#F5F5F5"/>
  <text x="152" y="615" font-family="SF Pro Display, system-ui" font-size="12" font-weight="500" fill="#6C757D" text-anchor="middle">适量</text>
  
  <rect x="193" y="586" width="170" height="52" rx="12" fill="#F8FAF9"/>
  <circle cx="217" cy="612" r="16" fill="#FFF3E0"/>
  <text x="217" y="618" font-family="SF Pro Display, system-ui" font-size="16" text-anchor="middle">🫒</text>
  <text x="241" y="606" font-family="SF Pro Display, system-ui" font-size="14" font-weight="600" fill="#1B4332">酱油</text>
  <text x="241" y="622" font-family="SF Pro Display, system-ui" font-size="11" fill="#6C757D">红烧肉</text>
  <rect x="311" y="598" width="44" height="24" rx="12" fill="#F5F5F5"/>
  <text x="333" y="615" font-family="SF Pro Display, system-ui" font-size="12" font-weight="500" fill="#6C757D" text-anchor="middle">40ml</text>
  
  <!-- Scroll indicator dots -->
  <circle cx="183" y="660" r="3" fill="#2D6A4F"/>
  <circle cx="193" y="660" r="3" fill="#D8F3DC"/>
  
  <!-- Bottom hint -->
  <text x="187" y="700" font-family="SF Pro Display, system-ui" font-size="12" fill="#95D5B2" text-anchor="middle">还有 2 种食材</text>
  
  <!-- Home Indicator -->
  <rect x="121" y="800" width="134" height="5" rx="2.5" fill="#1B4332" opacity="0.1"/>
</svg>
