<svg width="375" height="812" viewBox="0 0 375 812" fill="none" xmlns="http://www.w3.org/2000/svg">
  <defs>
    <filter id="cardShadow" x="-10" y="-10" width="200" height="240" filterUnits="userSpaceOnUse">
      <feDropShadow dx="0" dy="4" stdDeviation="8" flood-color="#2D6A4F" flood-opacity="0.12"/>
    </filter>
    <filter id="btnShadow" x="-4" y="-4" width="50" height="50" filterUnits="userSpaceOnUse">
      <feDropShadow dx="0" dy="2" stdDeviation="4" flood-color="#2D6A4F" flood-opacity="0.25"/>
    </filter>
    <linearGradient id="headerGrad" x1="0" y1="0" x2="375" y2="100" gradientUnits="userSpaceOnUse">
      <stop offset="0%" stop-color="#2D6A4F"/>
      <stop offset="100%" stop-color="#40916C"/>
    </linearGradient>
    <linearGradient id="cardGrad" x1="0" y1="0" x2="0" y2="1">
      <stop offset="0%" stop-color="#FFFFFF"/>
      <stop offset="100%" stop-color="#F8FAF9"/>
    </linearGradient>
  </defs>
  
  <!-- Background -->
  <rect width="375" height="812" fill="#F4F9F6"/>
  <ellipse cx="320" cy="200" rx="120" ry="100" fill="#D8F3DC" opacity="0.5"/>
  <ellipse cx="50" cy="600" rx="100" ry="80" fill="#B7E4C7" opacity="0.3"/>
  
  <!-- Status Bar -->
  <rect width="375" height="44" fill="#FFFFFF"/>
  <text x="187" y="28" font-family="SF Pro Display, system-ui" font-size="14" font-weight="600" fill="#1B4332" text-anchor="middle">9:41</text>
  <rect x="336" y="17" width="24" height="11" rx="3" stroke="#1B4332" stroke-width="1.2"/>
  <rect x="338" y="19" width="18" height="7" rx="2" fill="#2D6A4F"/>
  
  <!-- App Bar -->
  <rect y="44" width="375" height="64" fill="url(#headerGrad)"/>
  <path d="M0 108 Q93 98 187 108 T375 108 L375 108 L0 108" fill="#F4F9F6"/>
  
  <text x="24" y="86" font-family="SF Pro Display, system-ui" font-size="22" font-weight="700" fill="#FFFFFF">菜单</text>
  <!-- Menu/Drawer icon -->
  <g transform="translate(327, 68)">
    <rect width="22" height="2.5" rx="1.25" fill="#FFFFFF"/>
    <rect y="7" width="16" height="2.5" rx="1.25" fill="#FFFFFF" opacity="0.8"/>
    <rect y="14" width="22" height="2.5" rx="1.25" fill="#FFFFFF"/>
  </g>
  
  <!-- Category Filter Bar -->
  <rect y="108" width="375" height="60" fill="#FFFFFF"/>
  
  <rect x="16" y="120" width="60" height="36" rx="18" fill="#2D6A4F"/>
  <text x="46" y="143" font-family="SF Pro Display, system-ui" font-size="14" font-weight="600" fill="#FFFFFF" text-anchor="middle">全部</text>
  
  <rect x="84" y="120" width="60" height="36" rx="18" fill="#E9F5EC"/>
  <text x="114" y="143" font-family="SF Pro Display, system-ui" font-size="14" font-weight="500" fill="#40916C" text-anchor="middle">凉菜</text>
  
  <rect x="152" y="120" width="60" height="36" rx="18" fill="#E9F5EC"/>
  <text x="182" y="143" font-family="SF Pro Display, system-ui" font-size="14" font-weight="500" fill="#40916C" text-anchor="middle">热菜</text>
  
  <rect x="220" y="120" width="60" height="36" rx="18" fill="#E9F5EC"/>
  <text x="250" y="143" font-family="SF Pro Display, system-ui" font-size="14" font-weight="500" fill="#40916C" text-anchor="middle">汤羹</text>
  
  <rect x="288" y="120" width="60" height="36" rx="18" fill="#E9F5EC"/>
  <text x="318" y="143" font-family="SF Pro Display, system-ui" font-size="14" font-weight="500" fill="#40916C" text-anchor="middle">主食</text>
  
  <!-- ========== Card 1 - 红烧肉 (已添加 x2) ========== -->
  <g filter="url(#cardShadow)">
    <rect x="16" y="184" width="165" height="210" rx="20" fill="url(#cardGrad)"/>
    <rect x="16" y="184" width="165" height="120" rx="20" fill="#FFF3E6"/>
    <rect x="16" y="284" width="165" height="20" fill="#FFFFFF"/>
    <circle cx="98" cy="244" r="40" fill="#FFCBA4" opacity="0.6"/>
    <circle cx="85" cy="230" r="25" fill="#D4A373"/>
    <circle cx="110" cy="250" r="20" fill="#BC6C25"/>
    <text x="98" y="252" font-family="SF Pro Display, system-ui" font-size="32" text-anchor="middle">🍖</text>
  </g>
  <!-- Added badge -->
  <rect x="24" y="192" width="48" height="22" rx="11" fill="#2D6A4F"/>
  <text x="48" y="207" font-family="SF Pro Display, system-ui" font-size="11" font-weight="600" fill="#FFFFFF" text-anchor="middle">已点 x2</text>
  
  <text x="28" y="328" font-family="SF Pro Display, system-ui" font-size="17" font-weight="700" fill="#1B4332">红烧肉</text>
  <text x="28" y="350" font-family="SF Pro Display, system-ui" font-size="13" fill="#6C757D">热菜 · 经典菜</text>
  <!-- Quantity controls: - + -->
  <g transform="translate(113, 362)">
    <!-- Minus button -->
    <circle cx="0" cy="8" r="14" fill="#FFEBEE"/>
    <rect x="-6" y="6" width="12" height="3" rx="1.5" fill="#EF5350"/>
    <!-- Plus button -->
    <g filter="url(#btnShadow)">
      <circle cx="34" cy="8" r="14" fill="#52B788"/>
      <rect x="28" y="6" width="12" height="3" rx="1.5" fill="#FFFFFF"/>
      <rect x="32.5" y="1" width="3" height="14" rx="1.5" fill="#FFFFFF"/>
    </g>
  </g>
  
  <!-- ========== Card 2 - 糖醋里脊 (未添加) ========== -->
  <g filter="url(#cardShadow)">
    <rect x="194" y="184" width="165" height="210" rx="20" fill="url(#cardGrad)"/>
    <rect x="194" y="184" width="165" height="120" rx="20" fill="#FEF3E2"/>
    <rect x="194" y="284" width="165" height="20" fill="#FFFFFF"/>
    <circle cx="276" cy="244" r="40" fill="#FFE5B4" opacity="0.6"/>
    <circle cx="263" cy="235" r="22" fill="#F4A261"/>
    <circle cx="290" cy="250" r="18" fill="#E76F51"/>
    <text x="276" y="252" font-family="SF Pro Display, system-ui" font-size="32" text-anchor="middle">🥩</text>
  </g>
  <text x="206" y="328" font-family="SF Pro Display, system-ui" font-size="17" font-weight="700" fill="#1B4332">糖醋里脊</text>
  <text x="206" y="350" font-family="SF Pro Display, system-ui" font-size="13" fill="#6C757D">热菜 · 酸甜口</text>
  <!-- Single Add button (not added yet) -->
  <g filter="url(#btnShadow)">
    <circle cx="335" cy="370" r="18" fill="#52B788"/>
    <rect x="327" y="368" width="16" height="3" rx="1.5" fill="#FFFFFF"/>
    <rect x="333.5" y="362" width="3" height="16" rx="1.5" fill="#FFFFFF"/>
  </g>
  
  <!-- ========== Card 3 - 凉拌黄瓜 (已添加 x1) ========== -->
  <g filter="url(#cardShadow)">
    <rect x="16" y="410" width="165" height="210" rx="20" fill="url(#cardGrad)"/>
    <rect x="16" y="410" width="165" height="120" rx="20" fill="#E8F5E9"/>
    <rect x="16" y="510" width="165" height="20" fill="#FFFFFF"/>
    <circle cx="98" cy="470" r="40" fill="#A5D6A7" opacity="0.5"/>
    <ellipse cx="85" cy="465" rx="25" ry="12" fill="#66BB6A"/>
    <ellipse cx="110" cy="475" rx="20" ry="10" fill="#81C784"/>
    <text x="98" y="478" font-family="SF Pro Display, system-ui" font-size="32" text-anchor="middle">🥒</text>
  </g>
  <!-- Added badge -->
  <rect x="24" y="418" width="48" height="22" rx="11" fill="#2D6A4F"/>
  <text x="48" y="433" font-family="SF Pro Display, system-ui" font-size="11" font-weight="600" fill="#FFFFFF" text-anchor="middle">已点 x1</text>
  
  <text x="28" y="554" font-family="SF Pro Display, system-ui" font-size="17" font-weight="700" fill="#1B4332">凉拌黄瓜</text>
  <text x="28" y="576" font-family="SF Pro Display, system-ui" font-size="13" fill="#6C757D">凉菜 · 爽口</text>
  <!-- Quantity controls -->
  <g transform="translate(113, 588)">
    <circle cx="0" cy="8" r="14" fill="#FFEBEE"/>
    <rect x="-6" y="6" width="12" height="3" rx="1.5" fill="#EF5350"/>
    <g filter="url(#btnShadow)">
      <circle cx="34" cy="8" r="14" fill="#52B788"/>
      <rect x="28" y="6" width="12" height="3" rx="1.5" fill="#FFFFFF"/>
      <rect x="32.5" y="1" width="3" height="14" rx="1.5" fill="#FFFFFF"/>
    </g>
  </g>
  
  <!-- ========== Card 4 - 番茄蛋汤 (未添加) ========== -->
  <g filter="url(#cardShadow)">
    <rect x="194" y="410" width="165" height="210" rx="20" fill="url(#cardGrad)"/>
    <rect x="194" y="410" width="165" height="120" rx="20" fill="#FFEBEE"/>
    <rect x="194" y="510" width="165" height="20" fill="#FFFFFF"/>
    <circle cx="276" cy="470" r="40" fill="#FFCDD2" opacity="0.5"/>
    <circle cx="265" cy="460" r="20" fill="#EF5350"/>
    <circle cx="288" cy="478" r="15" fill="#FFEE58"/>
    <text x="276" y="478" font-family="SF Pro Display, system-ui" font-size="32" text-anchor="middle">🍅</text>
  </g>
  <text x="206" y="554" font-family="SF Pro Display, system-ui" font-size="17" font-weight="700" fill="#1B4332">番茄蛋汤</text>
  <text x="206" y="576" font-family="SF Pro Display, system-ui" font-size="13" fill="#6C757D">汤羹 · 营养</text>
  <!-- Single Add button -->
  <g filter="url(#btnShadow)">
    <circle cx="335" cy="596" r="18" fill="#52B788"/>
    <rect x="327" y="594" width="16" height="3" rx="1.5" fill="#FFFFFF"/>
    <rect x="333.5" y="588" width="3" height="16" rx="1.5" fill="#FFFFFF"/>
  </g>
  
  <!-- ========== Floating Order Summary Bar ========== -->
  <rect x="16" y="640" width="343" height="56" rx="28" fill="#2D6A4F"/>
  <!-- Order icon -->
  <circle cx="48" cy="668" r="18" fill="#40916C"/>
  <rect x="40" y="662" width="16" height="3" rx="1.5" fill="#FFFFFF"/>
  <rect x="40" y="668" width="12" height="3" rx="1.5" fill="#FFFFFF"/>
  <rect x="40" y="674" width="16" height="3" rx="1.5" fill="#FFFFFF"/>
  <!-- Summary text -->
  <text x="78" y="664" font-family="SF Pro Display, system-ui" font-size="14" font-weight="600" fill="#FFFFFF">已选 3 道菜</text>
  <text x="78" y="682" font-family="SF Pro Display, system-ui" font-size="12" fill="#95D5B2">点击查看订单</text>
  <!-- Arrow -->
  <path d="M325 662 L331 668 L325 674" stroke="#FFFFFF" stroke-width="2" stroke-linecap="round" stroke-linejoin="round" fill="none"/>
  
  <!-- ========== Bottom Navigation ========== -->
  <rect y="712" width="375" height="100" rx="24" fill="#FFFFFF"/>
  
  <!-- Menu Tab (Active) -->
  <g transform="translate(42, 728)">
    <rect x="-10" y="-6" width="44" height="44" rx="14" fill="#E9F5EC"/>
    <rect width="20" height="3" rx="1.5" fill="#2D6A4F"/>
    <rect y="6" width="14" height="3" rx="1.5" fill="#52B788"/>
    <rect y="12" width="20" height="3" rx="1.5" fill="#2D6A4F"/>
  </g>
  <text x="54" y="784" font-family="SF Pro Display, system-ui" font-size="11" font-weight="600" fill="#2D6A4F" text-anchor="middle">菜单</text>
  
  <!-- Orders Tab -->
  <g transform="translate(175, 730)">
    <rect x="-6" y="-4" width="36" height="28" rx="8" stroke="#95D5B2" stroke-width="2" fill="none"/>
    <rect x="2" y="6" width="20" height="2" rx="1" fill="#95D5B2"/>
    <rect x="2" y="12" width="14" height="2" rx="1" fill="#95D5B2"/>
  </g>
  <text x="187" y="784" font-family="SF Pro Display, system-ui" font-size="11" font-weight="500" fill="#6C757D" text-anchor="middle">订单</text>
  <!-- Badge -->
  <circle cx="205" cy="728" r="10" fill="#EF5350"/>
  <text x="205" y="732" font-family="SF Pro Display, system-ui" font-size="11" font-weight="700" fill="#FFFFFF" text-anchor="middle">3</text>
  
  <!-- Settings Tab -->
  <g transform="translate(308, 736)">
    <circle r="12" stroke="#95D5B2" stroke-width="2" fill="none"/>
    <circle r="4" fill="#95D5B2"/>
  </g>
  <text x="308" y="784" font-family="SF Pro Display, system-ui" font-size="11" font-weight="500" fill="#6C757D" text-anchor="middle">设置</text>
  
  <!-- Home Indicator -->
  <rect x="121" y="800" width="134" height="5" rx="2.5" fill="#1B4332" opacity="0.2"/>
</svg>
