<svg width="375" height="812" viewBox="0 0 375 812" fill="none" xmlns="http://www.w3.org/2000/svg">
  <defs>
    <linearGradient id="hero" x1="0" y1="44" x2="375" y2="180" gradientUnits="userSpaceOnUse">
      <stop offset="0" stop-color="#2D6A4F"/>
      <stop offset="1" stop-color="#52B788"/>
    </linearGradient>
    <linearGradient id="dishWarm" x1="0" y1="0" x2="1" y2="1">
      <stop offset="0" stop-color="#F4A261"/>
      <stop offset="1" stop-color="#E76F51"/>
    </linearGradient>
    <linearGradient id="dishGreen" x1="0" y1="0" x2="1" y2="1">
      <stop offset="0" stop-color="#95D5B2"/>
      <stop offset="1" stop-color="#40916C"/>
    </linearGradient>
    <filter id="shadow" x="-24" y="-24" width="423" height="860" filterUnits="userSpaceOnUse">
      <feDropShadow dx="0" dy="12" stdDeviation="16" flood-color="#2D6A4F" flood-opacity="0.12"/>
    </filter>
    <filter id="softShadow" x="-16" y="-16" width="220" height="260" filterUnits="userSpaceOnUse">
      <feDropShadow dx="0" dy="8" stdDeviation="12" flood-color="#2D6A4F" flood-opacity="0.08"/>
    </filter>
  </defs>

  <rect width="375" height="812" fill="#F4F9F6"/>
  <circle cx="326" cy="112" r="82" fill="#D8F3DC" fill-opacity="0.72"/>
  <circle cx="38" cy="642" r="102" fill="#E9F5EC"/>

  <rect width="375" height="44" fill="#F4F9F6"/>
  <text x="38" y="29" font-family="Avenir Next, PingFang SC, Hiragino Sans GB, sans-serif" font-size="14" font-weight="600" fill="#1B4332">9:41</text>
  <rect x="323" y="16" width="24" height="12" rx="4" stroke="#1B4332" stroke-width="1.2"/>
  <rect x="349" y="19" width="3" height="6" rx="1.5" fill="#1B4332"/>
  <rect x="325.5" y="18.5" width="18.5" height="7" rx="2.5" fill="#1B4332"/>

  <rect y="44" width="375" height="144" fill="url(#hero)"/>
  <path d="M0 188C58 172 124 164 188 170C260 176 322 198 375 188V220H0V188Z" fill="#F4F9F6"/>
  <rect x="24" y="62" width="92" height="28" rx="14" fill="#FFFFFF" fill-opacity="0.16"/>
  <circle cx="40" cy="76" r="6" fill="#D8F3DC"/>
  <path d="M40 72V80" stroke="#FFFFFF" stroke-width="1.5" stroke-linecap="round"/>
  <path d="M36 76H44" stroke="#FFFFFF" stroke-width="1.5" stroke-linecap="round"/>
  <text x="56" y="80" font-family="Avenir Next, PingFang SC, Hiragino Sans GB, sans-serif" font-size="12" font-weight="600" fill="#FFFFFF">林家厨房</text>
  <rect x="286" y="62" width="65" height="28" rx="14" fill="#FFFFFF" fill-opacity="0.16"/>
  <path d="M304 72H326" stroke="#FFFFFF" stroke-width="1.8" stroke-linecap="round"/>
  <path d="M304 79H320" stroke="#FFFFFF" stroke-width="1.8" stroke-linecap="round"/>
  <text x="318.5" y="86" font-family="Avenir Next, PingFang SC, Hiragino Sans GB, sans-serif" font-size="10" font-weight="600" fill="#FFFFFF" text-anchor="middle">切换家庭</text>
  <text x="24" y="118" font-family="Avenir Next, PingFang SC, Hiragino Sans GB, sans-serif" font-size="26" font-weight="700" fill="#FFFFFF">家庭菜单</text>
  <text x="24" y="142" font-family="Avenir Next, PingFang SC, Hiragino Sans GB, sans-serif" font-size="14" fill="#D8F3DC">Family → Order → Dish</text>
  <rect x="24" y="154" width="142" height="24" rx="12" fill="#FFFFFF" fill-opacity="0.16"/>
  <text x="95" y="170" font-family="Avenir Next, PingFang SC, Hiragino Sans GB, sans-serif" font-size="12" font-weight="600" fill="#FFFFFF" text-anchor="middle">当前订单进行中 · 第 2 轮</text>

  <rect x="16" y="210" width="343" height="56" rx="28" fill="#FFFFFF"/>
  <rect x="28" y="222" width="68" height="32" rx="16" fill="#2D6A4F"/>
  <text x="62" y="242" font-family="Avenir Next, PingFang SC, Hiragino Sans GB, sans-serif" font-size="13" font-weight="700" fill="#FFFFFF" text-anchor="middle">全部</text>
  <rect x="104" y="222" width="72" height="32" rx="16" fill="#E9F5EC"/>
  <text x="140" y="242" font-family="Avenir Next, PingFang SC, Hiragino Sans GB, sans-serif" font-size="13" font-weight="600" fill="#2D6A4F" text-anchor="middle">家常热菜</text>
  <rect x="184" y="222" width="60" height="32" rx="16" fill="#E9F5EC"/>
  <text x="214" y="242" font-family="Avenir Next, PingFang SC, Hiragino Sans GB, sans-serif" font-size="13" font-weight="600" fill="#2D6A4F" text-anchor="middle">凉菜</text>
  <rect x="252" y="222" width="94" height="32" rx="16" fill="#E9F5EC"/>
  <text x="299" y="242" font-family="Avenir Next, PingFang SC, Hiragino Sans GB, sans-serif" font-size="13" font-weight="600" fill="#2D6A4F" text-anchor="middle">汤羹与主食</text>

  <g filter="url(#softShadow)">
    <rect x="16" y="284" width="163" height="214" rx="24" fill="#FFFFFF"/>
  </g>
  <rect x="28" y="296" width="62" height="22" rx="11" fill="#D8F3DC"/>
  <text x="59" y="311" font-family="Avenir Next, PingFang SC, Hiragino Sans GB, sans-serif" font-size="11" font-weight="700" fill="#2D6A4F" text-anchor="middle">已点 x2</text>
  <rect x="28" y="334" width="139" height="84" rx="20" fill="#F8FAF9"/>
  <ellipse cx="97.5" cy="376" rx="47" ry="27" fill="#FFFFFF"/>
  <ellipse cx="97.5" cy="376" rx="36" ry="18" fill="url(#dishWarm)"/>
  <circle cx="84" cy="370" r="7" fill="#F4A261"/>
  <circle cx="102" cy="381" r="8" fill="#E76F51"/>
  <circle cx="114" cy="370" r="6" fill="#F4A261"/>
  <text x="98" y="381" font-family="Georgia, PingFang SC, serif" font-size="15" font-weight="700" fill="#FFFFFF" text-anchor="middle">红</text>
  <text x="28" y="445" font-family="Avenir Next, PingFang SC, Hiragino Sans GB, sans-serif" font-size="18" font-weight="700" fill="#1B4332">红烧肉</text>
  <text x="28" y="466" font-family="Avenir Next, PingFang SC, Hiragino Sans GB, sans-serif" font-size="13" fill="#6C757D">热菜 · 阿林创建 · 当前家庭可见</text>
  <rect x="28" y="476" width="60" height="22" rx="11" fill="#E9F5EC"/>
  <text x="58" y="491" font-family="Avenir Next, PingFang SC, Hiragino Sans GB, sans-serif" font-size="11" font-weight="600" fill="#2D6A4F" text-anchor="middle">五花肉</text>
  <rect x="96" y="476" width="52" height="22" rx="11" fill="#FEF3E2"/>
  <text x="122" y="491" font-family="Avenir Next, PingFang SC, Hiragino Sans GB, sans-serif" font-size="11" font-weight="600" fill="#E76F51" text-anchor="middle">酱香</text>
  <circle cx="126" cy="445" r="16" fill="#FFEBEE"/>
  <path d="M120 445H132" stroke="#EF5350" stroke-width="2" stroke-linecap="round"/>
  <circle cx="152" cy="445" r="16" fill="#2D6A4F"/>
  <path d="M146 445H158" stroke="#FFFFFF" stroke-width="2" stroke-linecap="round"/>
  <path d="M152 439V451" stroke="#FFFFFF" stroke-width="2" stroke-linecap="round"/>

  <g filter="url(#softShadow)">
    <rect x="196" y="284" width="163" height="214" rx="24" fill="#FFFFFF"/>
  </g>
  <rect x="208" y="296" width="74" height="22" rx="11" fill="#E9F5EC"/>
  <text x="245" y="311" font-family="Avenir Next, PingFang SC, Hiragino Sans GB, sans-serif" font-size="11" font-weight="700" fill="#2D6A4F" text-anchor="middle">本轮推荐</text>
  <rect x="208" y="334" width="139" height="84" rx="20" fill="#F8FAF9"/>
  <ellipse cx="277.5" cy="376" rx="47" ry="27" fill="#FFFFFF"/>
  <ellipse cx="277.5" cy="376" rx="36" ry="18" fill="url(#dishWarm)"/>
  <circle cx="264" cy="369" r="7" fill="#F4A261"/>
  <circle cx="282" cy="381" r="8" fill="#E76F51"/>
  <circle cx="294" cy="370" r="6" fill="#F4A261"/>
  <text x="278" y="381" font-family="Georgia, PingFang SC, serif" font-size="15" font-weight="700" fill="#FFFFFF" text-anchor="middle">脊</text>
  <text x="208" y="445" font-family="Avenir Next, PingFang SC, Hiragino Sans GB, sans-serif" font-size="18" font-weight="700" fill="#1B4332">糖醋里脊</text>
  <text x="208" y="466" font-family="Avenir Next, PingFang SC, Hiragino Sans GB, sans-serif" font-size="13" fill="#6C757D">热菜 · 快速出菜 · 适合补点</text>
  <rect x="208" y="476" width="62" height="22" rx="11" fill="#E9F5EC"/>
  <text x="239" y="491" font-family="Avenir Next, PingFang SC, Hiragino Sans GB, sans-serif" font-size="11" font-weight="600" fill="#2D6A4F" text-anchor="middle">里脊肉</text>
  <rect x="278" y="476" width="52" height="22" rx="11" fill="#E9F5EC"/>
  <text x="304" y="491" font-family="Avenir Next, PingFang SC, Hiragino Sans GB, sans-serif" font-size="11" font-weight="600" fill="#2D6A4F" text-anchor="middle">快手菜</text>
  <circle cx="330" cy="445" r="16" fill="#2D6A4F"/>
  <path d="M324 445H336" stroke="#FFFFFF" stroke-width="2" stroke-linecap="round"/>
  <path d="M330 439V451" stroke="#FFFFFF" stroke-width="2" stroke-linecap="round"/>

  <g filter="url(#softShadow)">
    <rect x="16" y="518" width="163" height="178" rx="24" fill="#FFFFFF"/>
  </g>
  <rect x="28" y="530" width="62" height="22" rx="11" fill="#D8F3DC"/>
  <text x="59" y="545" font-family="Avenir Next, PingFang SC, Hiragino Sans GB, sans-serif" font-size="11" font-weight="700" fill="#2D6A4F" text-anchor="middle">已点 x1</text>
  <rect x="28" y="566" width="139" height="70" rx="20" fill="#F8FAF9"/>
  <ellipse cx="97.5" cy="601" rx="47" ry="22" fill="#FFFFFF"/>
  <ellipse cx="97.5" cy="601" rx="36" ry="13" fill="url(#dishGreen)"/>
  <circle cx="84" cy="598" r="6" fill="#95D5B2"/>
  <circle cx="103" cy="604" r="7" fill="#40916C"/>
  <circle cx="115" cy="597" r="5" fill="#95D5B2"/>
  <text x="98" y="606" font-family="Georgia, PingFang SC, serif" font-size="15" font-weight="700" fill="#FFFFFF" text-anchor="middle">瓜</text>
  <text x="28" y="662" font-family="Avenir Next, PingFang SC, Hiragino Sans GB, sans-serif" font-size="18" font-weight="700" fill="#1B4332">凉拌黄瓜</text>
  <text x="28" y="682" font-family="Avenir Next, PingFang SC, Hiragino Sans GB, sans-serif" font-size="13" fill="#6C757D">凉菜 · 当前订单已有人点</text>

  <g filter="url(#softShadow)">
    <rect x="196" y="518" width="163" height="178" rx="24" fill="#FFFFFF"/>
  </g>
  <rect x="208" y="530" width="60" height="22" rx="11" fill="#FEF3E2"/>
  <text x="238" y="545" font-family="Avenir Next, PingFang SC, Hiragino Sans GB, sans-serif" font-size="11" font-weight="700" fill="#E76F51" text-anchor="middle">汤羹</text>
  <rect x="208" y="566" width="139" height="70" rx="20" fill="#F8FAF9"/>
  <ellipse cx="277.5" cy="601" rx="47" ry="22" fill="#FFFFFF"/>
  <ellipse cx="277.5" cy="601" rx="36" ry="13" fill="#E76F51"/>
  <circle cx="264" cy="598" r="6" fill="#F4A261"/>
  <circle cx="283" cy="604" r="7" fill="#FEF3E2"/>
  <circle cx="295" cy="597" r="5" fill="#F4A261"/>
  <text x="278" y="606" font-family="Georgia, PingFang SC, serif" font-size="15" font-weight="700" fill="#FFFFFF" text-anchor="middle">汤</text>
  <text x="208" y="662" font-family="Avenir Next, PingFang SC, Hiragino Sans GB, sans-serif" font-size="18" font-weight="700" fill="#1B4332">番茄蛋汤</text>
  <text x="208" y="682" font-family="Avenir Next, PingFang SC, Hiragino Sans GB, sans-serif" font-size="13" fill="#6C757D">汤羹 · 第 2 轮适合补点</text>

  <g filter="url(#shadow)">
    <rect x="16" y="640" width="343" height="64" rx="28" fill="#2D6A4F"/>
  </g>
  <circle cx="48" cy="672" r="18" fill="#40916C"/>
  <path d="M40 666H56" stroke="#FFFFFF" stroke-width="2" stroke-linecap="round"/>
  <path d="M40 672H52" stroke="#FFFFFF" stroke-width="2" stroke-linecap="round"/>
  <path d="M40 678H56" stroke="#FFFFFF" stroke-width="2" stroke-linecap="round"/>
  <text x="78" y="668" font-family="Avenir Next, PingFang SC, Hiragino Sans GB, sans-serif" font-size="14" font-weight="700" fill="#FFFFFF">当前订单 · 3 道菜</text>
  <text x="78" y="686" font-family="Avenir Next, PingFang SC, Hiragino Sans GB, sans-serif" font-size="12" fill="#D8F3DC">3 位成员已参与 · 分享码 FK-218</text>
  <path d="M325 666L331 672L325 678" stroke="#FFFFFF" stroke-width="2" stroke-linecap="round" stroke-linejoin="round"/>

  <rect y="728" width="375" height="84" rx="28" fill="#FFFFFF"/>
  <rect x="36" y="742" width="56" height="44" rx="16" fill="#E9F5EC"/>
  <path d="M54 756H74" stroke="#2D6A4F" stroke-width="2.4" stroke-linecap="round"/>
  <path d="M54 764H70" stroke="#52B788" stroke-width="2.4" stroke-linecap="round"/>
  <path d="M54 772H74" stroke="#2D6A4F" stroke-width="2.4" stroke-linecap="round"/>
  <text x="64" y="798" font-family="Avenir Next, PingFang SC, Hiragino Sans GB, sans-serif" font-size="11" font-weight="700" fill="#2D6A4F" text-anchor="middle">菜单</text>
  <path d="M176 752H204C208.418 752 212 755.582 212 760V778C212 782.418 208.418 786 204 786H176C171.582 786 168 782.418 168 778V760C168 755.582 171.582 752 176 752Z" stroke="#95D5B2" stroke-width="2"/>
  <path d="M176 764H204" stroke="#95D5B2" stroke-width="2"/>
  <path d="M176 772H196" stroke="#95D5B2" stroke-width="2"/>
  <text x="190" y="798" font-family="Avenir Next, PingFang SC, Hiragino Sans GB, sans-serif" font-size="11" fill="#6C757D" text-anchor="middle">订单</text>
  <circle cx="308" cy="769" r="15" stroke="#95D5B2" stroke-width="2"/>
  <circle cx="308" cy="763" r="4.5" fill="#95D5B2"/>
  <path d="M297 779C300 773.8 304.2 771 308 771C311.8 771 316 773.8 319 779" stroke="#95D5B2" stroke-width="2" stroke-linecap="round"/>
  <text x="308" y="798" font-family="Avenir Next, PingFang SC, Hiragino Sans GB, sans-serif" font-size="11" fill="#6C757D" text-anchor="middle">设置</text>
  <rect x="121" y="799" width="134" height="5" rx="2.5" fill="#1B4332" fill-opacity="0.18"/>
</svg>
