<svg width="375" height="812" viewBox="0 0 375 812" fill="none" xmlns="http://www.w3.org/2000/svg">
  <defs>
    <linearGradient id="ordersHero" x1="0" y1="44" x2="375" y2="196" gradientUnits="userSpaceOnUse">
      <stop offset="0" stop-color="#2D6A4F"/>
      <stop offset="1" stop-color="#52B788"/>
    </linearGradient>
    <filter id="ordersShadow" x="-24" y="-24" width="423" height="860" filterUnits="userSpaceOnUse">
      <feDropShadow dx="0" dy="12" stdDeviation="16" flood-color="#2D6A4F" flood-opacity="0.12"/>
    </filter>
    <filter id="ordersSoft" x="-16" y="-16" width="390" height="180" filterUnits="userSpaceOnUse">
      <feDropShadow dx="0" dy="8" stdDeviation="12" flood-color="#2D6A4F" flood-opacity="0.08"/>
    </filter>
  </defs>

  <rect width="375" height="812" fill="#F4F9F6"/>
  <circle cx="-10" cy="284" r="88" fill="#D8F3DC"/>
  <circle cx="356" cy="562" r="100" fill="#E9F5EC"/>

  <rect width="375" height="44" fill="#F4F9F6"/>
  <text x="38" y="29" font-family="Avenir Next, PingFang SC, Hiragino Sans GB, sans-serif" font-size="14" font-weight="600" fill="#1B4332">9:41</text>
  <rect x="323" y="16" width="24" height="12" rx="4" stroke="#1B4332" stroke-width="1.2"/>
  <rect x="349" y="19" width="3" height="6" rx="1.5" fill="#1B4332"/>
  <rect x="325.5" y="18.5" width="18.5" height="7" rx="2.5" fill="#1B4332"/>

  <rect y="44" width="375" height="152" fill="url(#ordersHero)"/>
  <path d="M0 196C62 184 128 178 189 184C260 191 324 209 375 196V224H0V196Z" fill="#F4F9F6"/>
  <rect x="24" y="62" width="92" height="28" rx="14" fill="#FFFFFF" fill-opacity="0.16"/>
  <text x="70" y="80" font-family="Avenir Next, PingFang SC, Hiragino Sans GB, sans-serif" font-size="12" font-weight="600" fill="#FFFFFF" text-anchor="middle">林家厨房</text>
  <rect x="286" y="62" width="65" height="28" rx="14" fill="#FFFFFF" fill-opacity="0.16"/>
  <path d="M304 72V82" stroke="#FFFFFF" stroke-width="1.8" stroke-linecap="round"/>
  <path d="M299 77H309" stroke="#FFFFFF" stroke-width="1.8" stroke-linecap="round"/>
  <rect x="314" y="71" width="14" height="12" rx="3" stroke="#FFFFFF" stroke-width="1.6"/>
  <text x="319" y="87" font-family="Avenir Next, PingFang SC, Hiragino Sans GB, sans-serif" font-size="10" font-weight="600" fill="#FFFFFF" text-anchor="middle">分享</text>
  <text x="24" y="118" font-family="Avenir Next, PingFang SC, Hiragino Sans GB, sans-serif" font-size="26" font-weight="700" fill="#FFFFFF">当前订单</text>
  <text x="24" y="142" font-family="Avenir Next, PingFang SC, Hiragino Sans GB, sans-serif" font-size="14" fill="#D8F3DC">家庭成员与访客在同一订单内协作</text>
  <rect x="24" y="154" width="80" height="24" rx="12" fill="#FEF3E2"/>
  <text x="64" y="170" font-family="Avenir Next, PingFang SC, Hiragino Sans GB, sans-serif" font-size="12" font-weight="700" fill="#E76F51" text-anchor="middle">点单中</text>
  <text x="124" y="170" font-family="Avenir Next, PingFang SC, Hiragino Sans GB, sans-serif" font-size="12" font-weight="600" fill="#FFFFFF">分享码 FK-218</text>

  <g filter="url(#ordersSoft)">
    <rect x="16" y="224" width="343" height="120" rx="24" fill="#FFFFFF"/>
  </g>
  <text x="30" y="252" font-family="Avenir Next, PingFang SC, Hiragino Sans GB, sans-serif" font-size="13" fill="#6C757D">订单进度</text>
  <rect x="30" y="266" width="88" height="34" rx="17" fill="#FEF3E2"/>
  <text x="74" y="287" font-family="Avenir Next, PingFang SC, Hiragino Sans GB, sans-serif" font-size="13" font-weight="700" fill="#E76F51" text-anchor="middle">1 点单中</text>
  <rect x="128" y="266" width="88" height="34" rx="17" fill="#E9F5EC"/>
  <text x="172" y="287" font-family="Avenir Next, PingFang SC, Hiragino Sans GB, sans-serif" font-size="13" font-weight="700" fill="#40916C" text-anchor="middle">2 已下单</text>
  <rect x="226" y="266" width="88" height="34" rx="17" fill="#D8F3DC"/>
  <text x="270" y="287" font-family="Avenir Next, PingFang SC, Hiragino Sans GB, sans-serif" font-size="13" font-weight="700" fill="#2D6A4F" text-anchor="middle">3 已完成</text>
  <text x="30" y="324" font-family="Avenir Next, PingFang SC, Hiragino Sans GB, sans-serif" font-size="12" fill="#6C757D">本轮 5 道菜 · 3 位家庭成员 + 1 位访客 · 创建者 阿林</text>

  <text x="24" y="378" font-family="Avenir Next, PingFang SC, Hiragino Sans GB, sans-serif" font-size="18" font-weight="700" fill="#1B4332">已点菜品</text>
  <text x="295" y="378" font-family="Avenir Next, PingFang SC, Hiragino Sans GB, sans-serif" font-size="13" font-weight="600" fill="#40916C">current_round = 2</text>

  <g filter="url(#ordersSoft)">
    <rect x="16" y="392" width="343" height="88" rx="20" fill="#FFFFFF"/>
  </g>
  <circle cx="54" cy="436" r="24" fill="#FEF3E2"/>
  <ellipse cx="54" cy="436" rx="16" ry="10" fill="#E76F51"/>
  <text x="54" y="441" font-family="Georgia, PingFang SC, serif" font-size="14" font-weight="700" fill="#FFFFFF" text-anchor="middle">红</text>
  <text x="88" y="426" font-family="Avenir Next, PingFang SC, Hiragino Sans GB, sans-serif" font-size="17" font-weight="700" fill="#1B4332">红烧肉</text>
  <text x="88" y="447" font-family="Avenir Next, PingFang SC, Hiragino Sans GB, sans-serif" font-size="13" fill="#6C757D">阿林 点的 · x2 · 家庭成员</text>
  <rect x="274" y="417" width="64" height="22" rx="11" fill="#E9F5EC"/>
  <text x="306" y="432" font-family="Avenir Next, PingFang SC, Hiragino Sans GB, sans-serif" font-size="11" font-weight="700" fill="#2D6A4F" text-anchor="middle">成员</text>
  <rect x="258" y="446" width="80" height="22" rx="11" fill="#E9F5EC"/>
  <circle cx="275" cy="457" r="4" fill="#95D5B2"/>
  <text x="304" y="461" font-family="Avenir Next, PingFang SC, Hiragino Sans GB, sans-serif" font-size="11" font-weight="700" fill="#40916C" text-anchor="middle">等待中</text>

  <g filter="url(#ordersSoft)">
    <rect x="16" y="492" width="343" height="88" rx="20" fill="#FFFFFF"/>
  </g>
  <circle cx="54" cy="536" r="24" fill="#FEF3E2"/>
  <ellipse cx="54" cy="536" rx="16" ry="10" fill="#F4A261"/>
  <text x="54" y="541" font-family="Georgia, PingFang SC, serif" font-size="14" font-weight="700" fill="#FFFFFF" text-anchor="middle">脊</text>
  <text x="88" y="526" font-family="Avenir Next, PingFang SC, Hiragino Sans GB, sans-serif" font-size="17" font-weight="700" fill="#1B4332">糖醋里脊</text>
  <text x="88" y="547" font-family="Avenir Next, PingFang SC, Hiragino Sans GB, sans-serif" font-size="13" fill="#6C757D">阿桃 点的 · x1 · 家庭成员</text>
  <rect x="274" y="517" width="64" height="22" rx="11" fill="#E9F5EC"/>
  <text x="306" y="532" font-family="Avenir Next, PingFang SC, Hiragino Sans GB, sans-serif" font-size="11" font-weight="700" fill="#2D6A4F" text-anchor="middle">成员</text>
  <rect x="258" y="546" width="80" height="22" rx="11" fill="#FEF3E2"/>
  <circle cx="275" cy="557" r="4" fill="#F4A261"/>
  <text x="304" y="561" font-family="Avenir Next, PingFang SC, Hiragino Sans GB, sans-serif" font-size="11" font-weight="700" fill="#E76F51" text-anchor="middle">制作中</text>

  <g filter="url(#ordersSoft)">
    <rect x="16" y="592" width="343" height="88" rx="20" fill="#FFFFFF"/>
  </g>
  <circle cx="54" cy="636" r="24" fill="#E9F5EC"/>
  <ellipse cx="54" cy="636" rx="16" ry="10" fill="#52B788"/>
  <text x="54" y="641" font-family="Georgia, PingFang SC, serif" font-size="14" font-weight="700" fill="#FFFFFF" text-anchor="middle">瓜</text>
  <text x="88" y="626" font-family="Avenir Next, PingFang SC, Hiragino Sans GB, sans-serif" font-size="17" font-weight="700" fill="#1B4332">凉拌黄瓜</text>
  <text x="88" y="647" font-family="Avenir Next, PingFang SC, Hiragino Sans GB, sans-serif" font-size="13" fill="#6C757D">阿哲 点的 · x1 · 访客</text>
  <rect x="274" y="617" width="64" height="22" rx="11" fill="#FEF3E2"/>
  <text x="306" y="632" font-family="Avenir Next, PingFang SC, Hiragino Sans GB, sans-serif" font-size="11" font-weight="700" fill="#E76F51" text-anchor="middle">访客</text>
  <rect x="258" y="646" width="80" height="22" rx="11" fill="#D8F3DC"/>
  <circle cx="275" cy="657" r="4" fill="#2D6A4F"/>
  <text x="304" y="661" font-family="Avenir Next, PingFang SC, Hiragino Sans GB, sans-serif" font-size="11" font-weight="700" fill="#2D6A4F" text-anchor="middle">已完成</text>

  <g filter="url(#ordersShadow)">
    <rect x="16" y="690" width="343" height="74" rx="28" fill="#FFFFFF"/>
  </g>
  <rect x="28" y="701" width="126" height="52" rx="24" fill="#E9F5EC"/>
  <text x="91" y="721" font-family="Avenir Next, PingFang SC, Hiragino Sans GB, sans-serif" font-size="11" font-weight="700" fill="#2D6A4F" text-anchor="middle">第 2 轮采购单</text>
  <text x="91" y="739" font-family="Avenir Next, PingFang SC, Hiragino Sans GB, sans-serif" font-size="15" font-weight="700" fill="#2D6A4F" text-anchor="middle">查看清单</text>
  <rect x="165" y="701" width="182" height="52" rx="24" fill="#2D6A4F"/>
  <text x="256" y="721" font-family="Avenir Next, PingFang SC, Hiragino Sans GB, sans-serif" font-size="11" font-weight="700" fill="#D8F3DC" text-anchor="middle">仅 owner / admin 可操作</text>
  <text x="256" y="739" font-family="Avenir Next, PingFang SC, Hiragino Sans GB, sans-serif" font-size="16" font-weight="700" fill="#FFFFFF" text-anchor="middle">确认下单</text>

  <rect y="728" width="375" height="84" rx="28" fill="#FFFFFF"/>
  <path d="M44 756H64" stroke="#95D5B2" stroke-width="2.4" stroke-linecap="round"/>
  <path d="M44 764H60" stroke="#95D5B2" stroke-width="2.4" stroke-linecap="round"/>
  <path d="M44 772H64" stroke="#95D5B2" stroke-width="2.4" stroke-linecap="round"/>
  <text x="54" y="798" font-family="Avenir Next, PingFang SC, Hiragino Sans GB, sans-serif" font-size="11" fill="#6C757D" text-anchor="middle">菜单</text>
  <rect x="160" y="742" width="56" height="44" rx="16" fill="#E9F5EC"/>
  <rect x="172" y="754" width="32" height="22" rx="7" stroke="#2D6A4F" stroke-width="2"/>
  <path d="M172 762H204" stroke="#2D6A4F" stroke-width="2"/>
  <path d="M172 770H194" stroke="#2D6A4F" stroke-width="2"/>
  <text x="188" y="798" font-family="Avenir Next, PingFang SC, Hiragino Sans GB, sans-serif" font-size="11" font-weight="700" fill="#2D6A4F" text-anchor="middle">订单</text>
  <circle cx="308" cy="769" r="15" stroke="#95D5B2" stroke-width="2"/>
  <circle cx="308" cy="763" r="4.5" fill="#95D5B2"/>
  <path d="M297 779C300 773.8 304.2 771 308 771C311.8 771 316 773.8 319 779" stroke="#95D5B2" stroke-width="2" stroke-linecap="round"/>
  <text x="308" y="798" font-family="Avenir Next, PingFang SC, Hiragino Sans GB, sans-serif" font-size="11" fill="#6C757D" text-anchor="middle">设置</text>
  <rect x="121" y="799" width="134" height="5" rx="2.5" fill="#1B4332" fill-opacity="0.18"/>
</svg>
