<svg width="375" height="812" viewBox="0 0 375 812" fill="none" xmlns="http://www.w3.org/2000/svg">
  <defs>
    <linearGradient id="historyHero" x1="0" y1="44" x2="375" y2="192" gradientUnits="userSpaceOnUse">
      <stop offset="0" stop-color="#2D6A4F"/>
      <stop offset="1" stop-color="#52B788"/>
    </linearGradient>
    <filter id="historyShadow" x="-24" y="-24" width="423" height="860" filterUnits="userSpaceOnUse">
      <feDropShadow dx="0" dy="12" stdDeviation="16" flood-color="#2D6A4F" flood-opacity="0.12"/>
    </filter>
  </defs>

  <rect width="375" height="812" fill="#F4F9F6"/>
  <circle cx="340" cy="196" r="90" fill="#D8F3DC"/>
  <circle cx="24" cy="708" r="84" fill="#E9F5EC"/>

  <rect width="375" height="44" fill="#F4F9F6"/>
  <text x="187" y="28" font-family="Avenir Next, PingFang SC, Hiragino Sans GB, sans-serif" font-size="14" font-weight="600" fill="#1B4332" text-anchor="middle">9:41</text>
  <rect x="336" y="17" width="24" height="11" rx="3" stroke="#1B4332" stroke-width="1.2"/>
  <rect x="338" y="19" width="18" height="7" rx="2" fill="#1B4332"/>

  <rect y="44" width="375" height="136" fill="url(#historyHero)"/>
  <path d="M0 180C60 168 122 162 188 168C262 175 324 192 375 180V212H0V180Z" fill="#F4F9F6"/>
  <g transform="translate(24,76)">
    <path d="M10 0L0 10L10 20" stroke="#FFFFFF" stroke-width="2.5" stroke-linecap="round" stroke-linejoin="round"/>
  </g>
  <text x="56" y="86" font-family="Avenir Next, PingFang SC, Hiragino Sans GB, sans-serif" font-size="22" font-weight="700" fill="#FFFFFF">历史订单</text>
  <rect x="248" y="64" width="103" height="28" rx="14" fill="#FFFFFF" fill-opacity="0.16"/>
  <text x="299.5" y="82" font-family="Avenir Next, PingFang SC, Hiragino Sans GB, sans-serif" font-size="12" font-weight="600" fill="#FFFFFF" text-anchor="middle">仅家庭成员可见</text>

  <g filter="url(#historyShadow)">
    <rect x="16" y="204" width="343" height="88" rx="22" fill="#FFFFFF"/>
  </g>
  <text x="70" y="238" font-family="Avenir Next, PingFang SC, Hiragino Sans GB, sans-serif" font-size="26" font-weight="700" fill="#2D6A4F" text-anchor="middle">12</text>
  <text x="70" y="258" font-family="Avenir Next, PingFang SC, Hiragino Sans GB, sans-serif" font-size="12" fill="#6C757D" text-anchor="middle">已完成订单</text>
  <line x1="140" y1="220" x2="140" y2="272" stroke="#E9F5EC"/>
  <text x="187" y="238" font-family="Avenir Next, PingFang SC, Hiragino Sans GB, sans-serif" font-size="26" font-weight="700" fill="#40916C" text-anchor="middle">48</text>
  <text x="187" y="258" font-family="Avenir Next, PingFang SC, Hiragino Sans GB, sans-serif" font-size="12" fill="#6C757D" text-anchor="middle">总菜品数</text>
  <line x1="234" y1="220" x2="234" y2="272" stroke="#E9F5EC"/>
  <text x="305" y="238" font-family="Avenir Next, PingFang SC, Hiragino Sans GB, sans-serif" font-size="26" font-weight="700" fill="#52B788" text-anchor="middle">6</text>
  <text x="305" y="258" font-family="Avenir Next, PingFang SC, Hiragino Sans GB, sans-serif" font-size="12" fill="#6C757D" text-anchor="middle">参与成员</text>

  <text x="24" y="326" font-family="Avenir Next, PingFang SC, Hiragino Sans GB, sans-serif" font-size="13" font-weight="600" fill="#6C757D">本月</text>

  <g filter="url(#historyShadow)">
    <rect x="16" y="338" width="343" height="92" rx="20" fill="#FFFFFF"/>
  </g>
  <circle cx="44" cy="370" r="18" fill="#FEF3E2"/>
  <text x="44" y="376" font-family="Georgia, PingFang SC, serif" font-size="12" font-weight="700" fill="#E76F51" text-anchor="middle">红</text>
  <circle cx="72" cy="370" r="18" fill="#E9F5EC"/>
  <text x="72" y="376" font-family="Georgia, PingFang SC, serif" font-size="12" font-weight="700" fill="#2D6A4F" text-anchor="middle">瓜</text>
  <circle cx="100" cy="370" r="18" fill="#D8F3DC"/>
  <text x="100" y="376" font-family="Georgia, PingFang SC, serif" font-size="12" font-weight="700" fill="#2D6A4F" text-anchor="middle">汤</text>
  <rect x="28" y="396" width="48" height="22" rx="11" fill="#D8F3DC"/>
  <text x="52" y="411" font-family="Avenir Next, PingFang SC, Hiragino Sans GB, sans-serif" font-size="11" font-weight="700" fill="#2D6A4F" text-anchor="middle">3/18</text>
  <text x="90" y="366" font-family="Avenir Next, PingFang SC, Hiragino Sans GB, sans-serif" font-size="16" font-weight="700" fill="#1B4332">周二家庭晚餐</text>
  <text x="90" y="386" font-family="Avenir Next, PingFang SC, Hiragino Sans GB, sans-serif" font-size="13" fill="#6C757D">6 道菜 · 4 人 · 1 位访客参与</text>
  <rect x="244" y="358" width="92" height="22" rx="11" fill="#D8F3DC"/>
  <text x="290" y="373" font-family="Avenir Next, PingFang SC, Hiragino Sans GB, sans-serif" font-size="11" font-weight="700" fill="#2D6A4F" text-anchor="middle">finished</text>
  <text x="90" y="410" font-family="Avenir Next, PingFang SC, Hiragino Sans GB, sans-serif" font-size="12" fill="#6C757D">访客在订单结束后不再保留访问入口</text>
  <path d="M335 376L341 382L335 388" stroke="#95D5B2" stroke-width="2" stroke-linecap="round" stroke-linejoin="round"/>

  <g filter="url(#historyShadow)">
    <rect x="16" y="446" width="343" height="92" rx="20" fill="#FFFFFF"/>
  </g>
  <circle cx="44" cy="478" r="18" fill="#FEF3E2"/>
  <text x="44" y="484" font-family="Georgia, PingFang SC, serif" font-size="12" font-weight="700" fill="#E76F51" text-anchor="middle">脊</text>
  <circle cx="72" cy="478" r="18" fill="#E9F5EC"/>
  <text x="72" y="484" font-family="Georgia, PingFang SC, serif" font-size="12" font-weight="700" fill="#2D6A4F" text-anchor="middle">瓜</text>
  <circle cx="100" cy="478" r="18" fill="#FEF3E2"/>
  <text x="100" y="484" font-family="Georgia, PingFang SC, serif" font-size="12" font-weight="700" fill="#E76F51" text-anchor="middle">饭</text>
  <rect x="28" y="504" width="48" height="22" rx="11" fill="#D8F3DC"/>
  <text x="52" y="519" font-family="Avenir Next, PingFang SC, Hiragino Sans GB, sans-serif" font-size="11" font-weight="700" fill="#2D6A4F" text-anchor="middle">3/10</text>
  <text x="90" y="474" font-family="Avenir Next, PingFang SC, Hiragino Sans GB, sans-serif" font-size="16" font-weight="700" fill="#1B4332">周末聚餐</text>
  <text x="90" y="494" font-family="Avenir Next, PingFang SC, Hiragino Sans GB, sans-serif" font-size="13" fill="#6C757D">5 道菜 · 3 人 · 两轮补菜</text>
  <rect x="244" y="466" width="92" height="22" rx="11" fill="#D8F3DC"/>
  <text x="290" y="481" font-family="Avenir Next, PingFang SC, Hiragino Sans GB, sans-serif" font-size="11" font-weight="700" fill="#2D6A4F" text-anchor="middle">家庭已归档</text>
  <text x="90" y="518" font-family="Avenir Next, PingFang SC, Hiragino Sans GB, sans-serif" font-size="12" fill="#6C757D">菜品历史保留，后续权限仍按家庭成员关系控制</text>
  <path d="M335 484L341 490L335 496" stroke="#95D5B2" stroke-width="2" stroke-linecap="round" stroke-linejoin="round"/>

  <text x="24" y="580" font-family="Avenir Next, PingFang SC, Hiragino Sans GB, sans-serif" font-size="13" font-weight="600" fill="#6C757D">上月</text>

  <g filter="url(#historyShadow)">
    <rect x="16" y="592" width="343" height="92" rx="20" fill="#FFFFFF"/>
  </g>
  <circle cx="44" cy="624" r="18" fill="#E9F5EC"/>
  <text x="44" y="630" font-family="Georgia, PingFang SC, serif" font-size="12" font-weight="700" fill="#2D6A4F" text-anchor="middle">鱼</text>
  <circle cx="72" cy="624" r="18" fill="#FEF3E2"/>
  <text x="72" y="630" font-family="Georgia, PingFang SC, serif" font-size="12" font-weight="700" fill="#E76F51" text-anchor="middle">汤</text>
  <circle cx="100" cy="624" r="18" fill="#E9F5EC"/>
  <text x="100" y="630" font-family="Georgia, PingFang SC, serif" font-size="12" font-weight="700" fill="#2D6A4F" text-anchor="middle">菜</text>
  <rect x="28" y="650" width="48" height="22" rx="11" fill="#E9F5EC"/>
  <text x="52" y="665" font-family="Avenir Next, PingFang SC, Hiragino Sans GB, sans-serif" font-size="11" font-weight="700" fill="#2D6A4F" text-anchor="middle">2/28</text>
  <text x="90" y="620" font-family="Avenir Next, PingFang SC, Hiragino Sans GB, sans-serif" font-size="16" font-weight="700" fill="#1B4332">月末清冰箱</text>
  <text x="90" y="640" font-family="Avenir Next, PingFang SC, Hiragino Sans GB, sans-serif" font-size="13" fill="#6C757D">7 道菜 · 5 人 · 订单创建者 阿林</text>
  <rect x="252" y="612" width="84" height="22" rx="11" fill="#E9F5EC"/>
  <text x="294" y="627" font-family="Avenir Next, PingFang SC, Hiragino Sans GB, sans-serif" font-size="11" font-weight="700" fill="#40916C" text-anchor="middle">2 轮采购</text>
  <text x="90" y="664" font-family="Avenir Next, PingFang SC, Hiragino Sans GB, sans-serif" font-size="12" fill="#6C757D">历史订单对活跃家庭成员长期保留</text>
  <path d="M335 630L341 636L335 642" stroke="#95D5B2" stroke-width="2" stroke-linecap="round" stroke-linejoin="round"/>

  <rect x="121" y="800" width="134" height="5" rx="2.5" fill="#1B4332" fill-opacity="0.18"/>
</svg>
