<svg width="375" height="812" viewBox="0 0 375 812" fill="none" xmlns="http://www.w3.org/2000/svg">
  <defs>
    <linearGradient id="settingHero" x1="0" y1="0" x2="375" y2="240" gradientUnits="userSpaceOnUse">
      <stop offset="0" stop-color="#2D6A4F"/>
      <stop offset="1" stop-color="#52B788"/>
    </linearGradient>
    <filter id="settingShadow" x="-24" y="-24" width="423" height="860" filterUnits="userSpaceOnUse">
      <feDropShadow dx="0" dy="12" stdDeviation="16" flood-color="#2D6A4F" flood-opacity="0.12"/>
    </filter>
    <filter id="avatarShadow" x="-20" y="-20" width="190" height="190" filterUnits="userSpaceOnUse">
      <feDropShadow dx="0" dy="14" stdDeviation="16" flood-color="#2D6A4F" flood-opacity="0.16"/>
    </filter>
  </defs>

  <rect width="375" height="812" fill="#F4F9F6"/>
  <rect width="375" height="240" fill="url(#settingHero)"/>
  <path d="M0 240C76 226 130 220 188 224C258 228 320 248 375 240V264H0V240Z" fill="#F4F9F6"/>
  <circle cx="48" cy="90" r="58" fill="#95D5B2" fill-opacity="0.22"/>
  <circle cx="332" cy="152" r="76" fill="#D8F3DC" fill-opacity="0.18"/>

  <text x="187" y="28" font-family="Avenir Next, PingFang SC, Hiragino Sans GB, sans-serif" font-size="14" font-weight="600" fill="#FFFFFF" text-anchor="middle">9:41</text>
  <rect x="336" y="17" width="24" height="11" rx="3" stroke="#FFFFFF" stroke-width="1.2"/>
  <rect x="338" y="19" width="18" height="7" rx="2" fill="#FFFFFF"/>
  <text x="187" y="76" font-family="Avenir Next, PingFang SC, Hiragino Sans GB, sans-serif" font-size="18" font-weight="600" fill="#FFFFFF" text-anchor="middle">设置</text>
  <g transform="translate(24,60)">
    <circle r="16" fill="#FFFFFF" fill-opacity="0.2"/>
    <path d="M-5 -5L5 5M5 -5L-5 5" stroke="#FFFFFF" stroke-width="2" stroke-linecap="round"/>
  </g>

  <g filter="url(#avatarShadow)">
    <circle cx="187" cy="156" r="52" fill="#FFFFFF"/>
  </g>
  <circle cx="187" cy="156" r="46" fill="#D8F3DC"/>
  <circle cx="187" cy="146" r="15" fill="#40916C"/>
  <path d="M164 177C169 161 177 154 187 154C197 154 205 161 210 177" fill="#2D6A4F"/>
  <circle cx="221" cy="190" r="14" fill="#FFFFFF"/>
  <circle cx="221" cy="190" r="11" fill="#52B788"/>
  <path d="M217 190H225" stroke="#FFFFFF" stroke-width="1.8" stroke-linecap="round"/>
  <path d="M221 186V194" stroke="#FFFFFF" stroke-width="1.8" stroke-linecap="round"/>

  <text x="187" y="242" font-family="Avenir Next, PingFang SC, Hiragino Sans GB, sans-serif" font-size="21" font-weight="700" fill="#1B4332" text-anchor="middle">阿林</text>
  <text x="187" y="264" font-family="Avenir Next, PingFang SC, Hiragino Sans GB, sans-serif" font-size="13" fill="#6C757D" text-anchor="middle">chef_lin · 当前家庭 林家厨房</text>
  <rect x="143" y="276" width="88" height="24" rx="12" fill="#D8F3DC"/>
  <text x="187" y="292" font-family="Avenir Next, PingFang SC, Hiragino Sans GB, sans-serif" font-size="12" font-weight="700" fill="#2D6A4F" text-anchor="middle">family owner</text>

  <text x="24" y="330" font-family="Avenir Next, PingFang SC, Hiragino Sans GB, sans-serif" font-size="13" font-weight="600" fill="#6C757D">家庭设置</text>
  <g filter="url(#settingShadow)">
    <rect x="16" y="342" width="343" height="144" rx="22" fill="#FFFFFF"/>
  </g>
  <rect x="32" y="358" width="40" height="40" rx="16" fill="#E9F5EC"/>
  <path d="M44 372H60" stroke="#2D6A4F" stroke-width="2" stroke-linecap="round"/>
  <path d="M52 364V380" stroke="#2D6A4F" stroke-width="2" stroke-linecap="round"/>
  <text x="88" y="372" font-family="Avenir Next, PingFang SC, Hiragino Sans GB, sans-serif" font-size="16" font-weight="600" fill="#1B4332">家庭成员管理</text>
  <text x="88" y="392" font-family="Avenir Next, PingFang SC, Hiragino Sans GB, sans-serif" font-size="13" fill="#6C757D">4 位活跃成员 · owner/admin 可调整角色</text>
  <path d="M335 374L341 380L335 386" stroke="#95D5B2" stroke-width="2" stroke-linecap="round" stroke-linejoin="round"/>
  <line x1="88" y1="414" x2="343" y2="414" stroke="#E9F5EC"/>
  <rect x="32" y="430" width="40" height="40" rx="16" fill="#E9F5EC"/>
  <rect x="43" y="441" width="18" height="12" rx="4" stroke="#2D6A4F" stroke-width="2"/>
  <path d="M52 436V441" stroke="#2D6A4F" stroke-width="2" stroke-linecap="round"/>
  <text x="88" y="444" font-family="Avenir Next, PingFang SC, Hiragino Sans GB, sans-serif" font-size="16" font-weight="600" fill="#1B4332">邀请码与加入设置</text>
  <text x="88" y="464" font-family="Avenir Next, PingFang SC, Hiragino Sans GB, sans-serif" font-size="13" fill="#6C757D">加入码 FK-HOME · 可刷新旧码失效</text>
  <path d="M335 446L341 452L335 458" stroke="#95D5B2" stroke-width="2" stroke-linecap="round" stroke-linejoin="round"/>

  <text x="24" y="520" font-family="Avenir Next, PingFang SC, Hiragino Sans GB, sans-serif" font-size="13" font-weight="600" fill="#6C757D">账户与记录</text>
  <g filter="url(#settingShadow)">
    <rect x="16" y="532" width="343" height="160" rx="22" fill="#FFFFFF"/>
  </g>
  <rect x="32" y="548" width="40" height="40" rx="16" fill="#E9F5EC"/>
  <circle cx="52" cy="559" r="7" stroke="#2D6A4F" stroke-width="2"/>
  <path d="M42 576C45 569 48 566 52 566C56 566 59 569 62 576" stroke="#2D6A4F" stroke-width="2" stroke-linecap="round"/>
  <text x="88" y="562" font-family="Avenir Next, PingFang SC, Hiragino Sans GB, sans-serif" font-size="16" font-weight="600" fill="#1B4332">编辑资料</text>
  <text x="88" y="582" font-family="Avenir Next, PingFang SC, Hiragino Sans GB, sans-serif" font-size="13" fill="#6C757D">用户名、头像和默认家庭</text>
  <path d="M335 564L341 570L335 576" stroke="#95D5B2" stroke-width="2" stroke-linecap="round" stroke-linejoin="round"/>
  <line x1="88" y1="604" x2="343" y2="604" stroke="#E9F5EC"/>
  <rect x="32" y="620" width="40" height="40" rx="16" fill="#E9F5EC"/>
  <path d="M44 633H60" stroke="#2D6A4F" stroke-width="2" stroke-linecap="round"/>
  <path d="M44 640H60" stroke="#2D6A4F" stroke-width="2" stroke-linecap="round"/>
  <path d="M44 647H55" stroke="#2D6A4F" stroke-width="2" stroke-linecap="round"/>
  <text x="88" y="634" font-family="Avenir Next, PingFang SC, Hiragino Sans GB, sans-serif" font-size="16" font-weight="600" fill="#1B4332">历史订单</text>
  <text x="88" y="654" font-family="Avenir Next, PingFang SC, Hiragino Sans GB, sans-serif" font-size="13" fill="#6C757D">仅家庭成员可查看已结束订单</text>
  <path d="M335 636L341 642L335 648" stroke="#95D5B2" stroke-width="2" stroke-linecap="round" stroke-linejoin="round"/>

  <rect x="16" y="708" width="343" height="52" rx="26" fill="#FFEBEE"/>
  <text x="187" y="740" font-family="Avenir Next, PingFang SC, Hiragino Sans GB, sans-serif" font-size="16" font-weight="700" fill="#EF5350" text-anchor="middle">退出登录</text>

  <rect y="728" width="375" height="84" rx="28" fill="#FFFFFF"/>
  <path d="M44 756H64" stroke="#95D5B2" stroke-width="2.4" stroke-linecap="round"/>
  <path d="M44 764H60" stroke="#95D5B2" stroke-width="2.4" stroke-linecap="round"/>
  <path d="M44 772H64" stroke="#95D5B2" stroke-width="2.4" stroke-linecap="round"/>
  <text x="54" y="798" font-family="Avenir Next, PingFang SC, Hiragino Sans GB, sans-serif" font-size="11" fill="#6C757D" text-anchor="middle">菜单</text>
  <rect x="172" y="754" width="32" height="22" rx="7" stroke="#95D5B2" stroke-width="2"/>
  <path d="M172 762H204" stroke="#95D5B2" stroke-width="2"/>
  <path d="M172 770H194" stroke="#95D5B2" stroke-width="2"/>
  <text x="188" y="798" font-family="Avenir Next, PingFang SC, Hiragino Sans GB, sans-serif" font-size="11" fill="#6C757D" text-anchor="middle">订单</text>
  <rect x="280" y="742" width="56" height="44" rx="16" fill="#E9F5EC"/>
  <circle cx="308" cy="760" r="12" stroke="#2D6A4F" stroke-width="2"/>
  <circle cx="308" cy="756" r="4.5" fill="#2D6A4F"/>
  <path d="M298 771C301 766 304.3 763.8 308 763.8C311.7 763.8 315 766 318 771" stroke="#2D6A4F" stroke-width="2" stroke-linecap="round"/>
  <text x="308" y="798" font-family="Avenir Next, PingFang SC, Hiragino Sans GB, sans-serif" font-size="11" font-weight="700" fill="#2D6A4F" text-anchor="middle">设置</text>
  <rect x="121" y="799" width="134" height="5" rx="2.5" fill="#1B4332" fill-opacity="0.18"/>
</svg>
