<svg width="1024" height="1024" viewBox="0 0 1024 1024" fill="none" xmlns="http://www.w3.org/2000/svg">
  <g filter="url(#tile-shadow)">
    <rect x="0" y="0" width="1024" height="1024" rx="0" fill="url(#tile-bg)"/>
  </g>
  <g transform="translate(512 512)">
    <ellipse cx="0" cy="202" rx="184" ry="34" fill="#183E2F" opacity="0.18"/>
    <path d="M-214 12H214C214 184 117 300 0 300C-117 300 -214 184 -214 12Z" fill="url(#bowl-body)"/>
    <path d="M-182 38H182C167 175 95 254 0 254C-95 254 -167 175 -182 38Z" fill="url(#bowl-inner)"/>
    <path d="M-252 -46C-252 -76 -227 -101 -197 -101H197C227 -101 252 -76 252 -46C252 -16 227 9 197 9H-197C-227 9 -252 -16 -252 -46Z" fill="url(#rim-fill)"/>
    <path d="M-188 -69H188" stroke="#FFF0C5" stroke-width="16" stroke-linecap="round" opacity="0.85"/>
    <path d="M-68 -210L-16 -160L91 -267" stroke="url(#check-stroke)" stroke-width="40" stroke-linecap="round" stroke-linejoin="round"/>
    <path d="M-150 102C-131 185 -78 238 -8 259" stroke="#FFFFFF" stroke-width="18" stroke-linecap="round" opacity="0.42"/>
  </g>
  <defs>
    <filter id="tile-shadow" x="45" y="53" width="934" height="934" filterUnits="userSpaceOnUse" color-interpolation-filters="sRGB">
      <feFlood flood-opacity="0" result="BackgroundImageFix"/>
      <feColorMatrix in="SourceAlpha" type="matrix" values="0 0 0 0 0 0 0 0 0 0 0 0 0 0 0 0 0 0 127 0" result="hardAlpha"/>
      <feOffset dy="18"/>
      <feGaussianBlur stdDeviation="16"/>
      <feComposite in2="hardAlpha" operator="out"/>
      <feColorMatrix type="matrix" values="0 0 0 0 0.10 0 0 0 0 0.25 0 0 0 0 0.19 0 0 0 0.24 0"/>
      <feBlend mode="normal" in2="BackgroundImageFix" result="effect1_dropShadow_1_1"/>
      <feBlend mode="normal" in="SourceGraphic" in2="effect1_dropShadow_1_1" result="shape"/>
    </filter>
    <linearGradient id="tile-bg" x1="77" y1="77" x2="947" y2="947" gradientUnits="userSpaceOnUse">
      <stop stop-color="#2C6D50"/>
      <stop offset="0.55" stop-color="#3F8765"/>
      <stop offset="1" stop-color="#204C3A"/>
    </linearGradient>
    <radialGradient id="tile-glow" cx="0" cy="0" r="1" gradientUnits="userSpaceOnUse" gradientTransform="translate(730 202) rotate(136.2) scale(772.658)">
      <stop stop-color="#A8D7BD"/>
      <stop offset="1" stop-color="#A8D7BD" stop-opacity="0"/>
    </radialGradient>
    <linearGradient id="bowl-body" x1="-154" y1="-12" x2="166" y2="266" gradientUnits="userSpaceOnUse">
      <stop stop-color="#FFFDF8"/>
      <stop offset="0.52" stop-color="#F7EFE1"/>
      <stop offset="1" stop-color="#E7D9C5"/>
    </linearGradient>
    <linearGradient id="bowl-inner" x1="-144" y1="56" x2="140" y2="236" gradientUnits="userSpaceOnUse">
      <stop stop-color="#FFFFFF" stop-opacity="0.52"/>
      <stop offset="1" stop-color="#FFFFFF" stop-opacity="0"/>
    </linearGradient>
    <linearGradient id="rim-fill" x1="-252" y1="-101" x2="252" y2="9" gradientUnits="userSpaceOnUse">
      <stop stop-color="#EAB75B"/>
      <stop offset="0.5" stop-color="#F4CB72"/>
      <stop offset="1" stop-color="#DFA74A"/>
    </linearGradient>
    <linearGradient id="check-stroke" x1="-48" y1="-240" x2="82" y2="-166" gradientUnits="userSpaceOnUse">
      <stop stop-color="#FFF6DA"/>
      <stop offset="1" stop-color="#F3D996"/>
    </linearGradient>
  </defs>
</svg>
