<svg width="1024" height="1024" viewBox="0 0 1024 1024" fill="none" xmlns="http://www.w3.org/2000/svg">
  <rect width="1024" height="1024" rx="224" fill="#1F4D3A"/>
  <rect x="86" y="86" width="852" height="852" rx="186" fill="url(#bg2)"/>
  <rect x="270" y="430" width="484" height="278" rx="86" fill="#FFF9EF"/>
  <rect x="358" y="336" width="308" height="84" rx="42" fill="#F2C879"/>
  <rect x="450" y="270" width="124" height="54" rx="27" fill="#FFF9EF"/>
  <path d="M210 476H272V640H210C180 640 156 616 156 586V530C156 500 180 476 210 476Z" fill="#BFE3CF"/>
  <path d="M814 476H752V640H814C844 640 868 616 868 586V530C868 500 844 476 814 476Z" fill="#BFE3CF"/>
  <path d="M404 230C404 202 424 176 454 176C478 176 495 192 500 214C506 182 529 160 560 160C598 160 624 190 624 226C624 250 613 271 596 288" stroke="#FFF9EF" stroke-width="28" stroke-linecap="round"/>
  <path d="M350 570H674" stroke="#2D6A4F" stroke-width="30" stroke-linecap="round"/>
  <circle cx="418" cy="570" r="18" fill="#2D6A4F"/>
  <circle cx="512" cy="570" r="18" fill="#2D6A4F"/>
  <circle cx="606" cy="570" r="18" fill="#2D6A4F"/>
  <defs>
    <linearGradient id="bg2" x1="174" y1="152" x2="842" y2="892" gradientUnits="userSpaceOnUse">
      <stop stop-color="#78B798"/>
      <stop offset="1" stop-color="#2D6A4F"/>
    </linearGradient>
  </defs>
</svg>
