<svg width="1024" height="1024" viewBox="0 0 1024 1024" fill="none" xmlns="http://www.w3.org/2000/svg">
  <rect width="1024" height="1024" rx="224" fill="#1F4D3A"/>
  <rect x="86" y="86" width="852" height="852" rx="186" fill="url(#bg4)"/>
  <rect x="286" y="208" width="452" height="608" rx="116" fill="#FFF9EF"/>
  <rect x="458" y="170" width="108" height="92" rx="46" fill="#F2C879"/>
  <circle cx="512" cy="220" r="18" fill="#2D6A4F"/>
  <path d="M414 420C414 371 454 332 503 332H612C642 332 666 356 666 386C666 416 642 440 612 440H503C487 440 474 453 474 469C474 485 487 498 503 498H562C621 498 670 547 670 606C670 665 621 714 562 714H414" stroke="#2D6A4F" stroke-width="34" stroke-linecap="round" stroke-linejoin="round"/>
  <path d="M350 596L470 476" stroke="#F2C879" stroke-width="34" stroke-linecap="round"/>
  <path d="M656 262L786 392" stroke="#BFE3CF" stroke-width="34" stroke-linecap="round"/>
  <path d="M700 222L826 348" stroke="#FFF9EF" stroke-width="16" stroke-linecap="round"/>
  <defs>
    <linearGradient id="bg4" x1="176" y1="154" x2="854" y2="896" gradientUnits="userSpaceOnUse">
      <stop stop-color="#78B798"/>
      <stop offset="1" stop-color="#2D6A4F"/>
    </linearGradient>
  </defs>
</svg>
