<svg width="1024" height="1024" viewBox="0 0 1024 1024" fill="none" xmlns="http://www.w3.org/2000/svg">
  <rect width="1024" height="1024" rx="224" fill="#2D6A4F"/>
  <rect x="86" y="86" width="852" height="852" rx="186" fill="url(#bg1)"/>
  <path d="M262 640C262 497 378 380 521 380C664 380 780 497 780 640H262Z" fill="#FFF9EF"/>
  <path d="M334 670H710C739 670 762 693 762 722C762 751 739 774 710 774H334C305 774 282 751 282 722C282 693 305 670 334 670Z" fill="#F2C879"/>
  <path d="M452 332C452 298 478 272 512 272C546 272 572 298 572 332C572 352 563 370 548 382H476C461 370 452 352 452 332Z" fill="#FFF9EF"/>
  <circle cx="512" cy="334" r="28" fill="#F2C879"/>
  <path d="M389 561C406 490 452 446 521 446C590 446 637 490 653 561" stroke="#2D6A4F" stroke-width="26" stroke-linecap="round"/>
  <defs>
    <linearGradient id="bg1" x1="170" y1="148" x2="850" y2="896" gradientUnits="userSpaceOnUse">
      <stop stop-color="#3F8A67"/>
      <stop offset="1" stop-color="#1F4D3A"/>
    </linearGradient>
  </defs>
</svg>
